<svg width="133" height="133" viewBox="0 0 133 133" fill="none" xmlns="http://www.w3.org/2000/svg">
<circle cx="66.5" cy="66.5" r="62" fill="white" stroke="#F3FCFD" stroke-width="9"/>
<path d="M60.7178 52.9233L80.8227 52.9233L80.8227 73.0283" stroke="#385182" stroke-width="2.1" stroke-miterlimit="10" stroke-linecap="round" stroke-linejoin="round"/>
<path d="M52.6689 81.0767L80.5409 53.2047" stroke="#385182" stroke-width="2.1" stroke-miterlimit="10" stroke-linecap="round" stroke-linejoin="round"/>
<path d="M78.2465 115.828L77.146 115.927L76.3263 106.864L77.4268 106.765L78.2465 115.828ZM74.7079 107.011L76.8183 106.82L76.9178 107.92L74.8074 108.111C74.2982 108.157 73.8391 108.277 73.4302 108.471C73.0221 108.673 72.6803 108.934 72.4047 109.255C72.1299 109.585 71.9297 109.968 71.8039 110.406C71.6782 110.844 71.6391 111.326 71.6868 111.852C71.7344 112.379 71.8593 112.846 72.0616 113.254C72.2638 113.662 72.5292 113.999 72.8579 114.266C73.1873 114.54 73.5705 114.736 74.0075 114.853C74.4453 114.979 74.9188 115.019 75.4281 114.973L77.5384 114.782L77.638 115.883L75.5276 116.074C74.6472 116.153 73.8489 116.034 73.1326 115.716C72.4164 115.398 71.8332 114.915 71.3832 114.268C70.9338 113.63 70.6682 112.858 70.5862 111.952C70.5043 111.046 70.6267 110.234 70.9534 109.517C71.2809 108.809 71.7685 108.234 72.416 107.792C73.0635 107.351 73.8275 107.09 74.7079 107.011Z" fill="black"/>
<path d="M62.0917 115.742L61.0031 115.553L62.5647 106.588L63.6533 106.777L62.0917 115.742Z" fill="black"/>
<path d="M53.6449 107.032C53.6049 106.615 53.5393 106.234 53.4479 105.888C53.3486 105.539 53.2007 105.235 53.0041 104.975C52.8075 104.715 52.5433 104.51 52.2115 104.361C51.7691 104.161 51.3583 104.123 50.9793 104.247C50.6002 104.371 50.3251 104.622 50.1541 105.002C49.9866 105.373 49.9399 105.708 50.014 106.008C50.088 106.308 50.237 106.589 50.4608 106.851C50.6732 107.118 50.9124 107.378 51.1786 107.631C51.3519 107.795 51.54 107.989 51.743 108.214C51.9423 108.446 52.1174 108.701 52.2681 108.978C52.4152 109.263 52.5051 109.57 52.5376 109.899C52.5622 110.223 52.489 110.575 52.318 110.955C52.1327 111.365 51.8643 111.686 51.5128 111.918C51.1613 112.149 50.7629 112.274 50.3175 112.291C49.8686 112.317 49.4111 112.225 48.945 112.015C48.4946 111.811 48.1428 111.548 47.8893 111.225C47.6245 110.906 47.4341 110.558 47.3182 110.183C47.1988 109.815 47.1378 109.455 47.1354 109.102L48.2249 108.995C48.235 109.246 48.2745 109.507 48.3434 109.775C48.4123 110.044 48.5329 110.293 48.705 110.523C48.8692 110.749 49.1132 110.935 49.4371 111.081C49.8875 111.285 50.2652 111.322 50.5704 111.193C50.872 111.073 51.0834 110.878 51.2045 110.609C51.3078 110.38 51.3448 110.14 51.3154 109.889C51.2824 109.646 51.1668 109.375 50.9687 109.077C50.7591 108.783 50.4508 108.444 50.0437 108.061C49.8581 107.882 49.6714 107.674 49.4835 107.437C49.2956 107.2 49.1434 106.937 49.0271 106.647C48.8993 106.361 48.8306 106.049 48.821 105.712C48.8079 105.383 48.8868 105.029 49.0578 104.65C49.2217 104.286 49.4407 103.991 49.7147 103.762C49.9809 103.531 50.2827 103.367 50.6203 103.272C50.9499 103.174 51.2938 103.139 51.6517 103.167C52.0018 103.192 52.3428 103.279 52.6746 103.429C53.1249 103.632 53.5009 103.916 53.8025 104.28C54.0926 104.648 54.3126 105.056 54.4624 105.504C54.6007 105.956 54.6788 106.405 54.6966 106.851L53.6449 107.032Z" fill="black"/>
<path d="M40.353 101.477C40.8222 100.955 41.1204 100.39 41.2475 99.7815C41.3681 99.1675 41.3396 98.5768 41.162 98.0094C40.9844 97.442 40.6732 96.9585 40.2284 96.5588C39.9061 96.2692 39.5751 96.0475 39.2355 95.8938C38.8894 95.7343 38.5402 95.6302 38.1878 95.5815C37.8296 95.5393 37.4833 95.5486 37.149 95.6094L38.1222 94.5264C38.6318 94.5299 39.1092 94.621 39.5545 94.7997C39.9997 94.9784 40.4706 95.2908 40.9669 95.7369C41.4375 96.1597 41.8038 96.6403 42.0658 97.1786C42.3155 97.7176 42.4561 98.2809 42.4874 98.8683C42.513 99.4623 42.4217 100.05 42.2134 100.632C42.0052 101.214 41.6751 101.756 41.2233 102.259C40.7715 102.762 40.2674 103.148 39.711 103.417C39.1547 103.686 38.5828 103.836 37.9953 103.868C37.402 103.905 36.827 103.826 36.2703 103.628C35.7013 103.432 35.1815 103.122 34.7109 102.699C34.2145 102.253 33.8538 101.818 33.6286 101.394C33.4035 100.971 33.262 100.506 33.2043 99.9995L34.1774 98.9165C34.1526 99.2553 34.1831 99.5974 34.2691 99.9426C34.3492 100.294 34.487 100.634 34.6825 100.961C34.8715 101.282 35.1272 101.587 35.4495 101.877C35.8943 102.277 36.4082 102.535 36.9913 102.651C37.5744 102.767 38.1648 102.732 38.7624 102.547C39.3478 102.362 39.8781 102.006 40.353 101.477Z" fill="black"/>
<path d="M30.0244 90.1951C30.6265 89.8692 31.0937 89.4487 31.4259 88.9338C31.7541 88.4112 31.9315 87.847 31.9584 87.2412C31.9852 86.6354 31.8418 86.0429 31.5282 85.4636C31.2105 84.8768 30.7928 84.4328 30.275 84.1316C29.753 83.8229 29.1857 83.6668 28.5729 83.6635C27.9559 83.6526 27.3464 83.8101 26.7443 84.136C26.1422 84.462 25.6771 84.8862 25.3489 85.4088C25.0167 85.9237 24.8372 86.4841 24.8103 87.0899C24.7794 87.6881 24.9228 88.2807 25.2405 88.8675C25.554 89.4467 25.9718 89.8907 26.4937 90.1995C27.0156 90.5083 27.5851 90.6681 28.202 90.6791C28.8148 90.6824 29.4223 90.5211 30.0244 90.1951ZM30.5814 91.224C29.9945 91.5417 29.3998 91.7356 28.7971 91.8056C28.1827 91.8721 27.5935 91.8215 27.0297 91.6537C26.4582 91.4901 25.9354 91.2162 25.4615 90.8322C24.9799 90.4524 24.5823 89.9728 24.2687 89.3936C23.951 88.8067 23.7668 88.2116 23.7162 87.6083C23.6538 87.0015 23.7103 86.4141 23.8857 85.8461C24.0535 85.2822 24.3353 84.7651 24.731 84.2946C25.115 83.8206 25.6004 83.4248 26.1873 83.1071C26.7665 82.7935 27.3634 82.6035 27.9778 82.5369C28.5881 82.4628 29.179 82.5076 29.7505 82.6712C30.3143 82.839 30.8371 83.1128 31.3187 83.4927C31.7885 83.8691 32.1823 84.3507 32.5 84.9376C32.8135 85.5168 33.0015 86.1098 33.0639 86.7166C33.1187 87.3275 33.0622 87.9149 32.8944 88.4788C32.719 89.0468 32.4355 89.5699 32.0439 90.048C31.6481 90.5184 31.1606 90.9105 30.5814 91.224Z" fill="black"/>
<path d="M25.526 71.2806L18.1056 69.4037L17.9166 68.1833L28.0055 70.8968L19.2093 76.5338L19.0204 75.3133L25.526 71.2806Z" fill="black"/>
<path d="M27.1692 59.8481L26.1416 59.6878L26.8489 55.1536L27.8765 55.3139L27.1692 59.8481ZM19.2055 58.6058L18.1779 58.4455L18.8853 53.9113L19.9128 54.0716L19.2055 58.6058ZM22.802 59.1668L21.7745 59.0065L22.4417 54.7293L23.4693 54.8896L22.802 59.1668ZM18.0838 59.0492L18.2541 57.9574L27.2453 59.36L27.075 60.4518L18.0838 59.0492Z" fill="black"/>
<path d="M26.7192 44.607L27.2582 43.4958L32.7119 42.5292L32.1162 43.7573L26.7192 44.607ZM21.8577 44.0547L22.34 43.0606L30.5275 47.0323L30.0452 48.0265L21.8577 44.0547ZM23.0016 43.9306L22.1244 43.505L22.9357 41.8324C23.193 41.3022 23.5232 40.8796 23.9264 40.5647C24.3256 40.2382 24.7671 40.043 25.2508 39.979C25.7384 39.9073 26.2355 39.9944 26.7424 40.2402C27.2414 40.4823 27.6176 40.8189 27.8708 41.25C28.12 41.6695 28.2439 42.139 28.2424 42.6584C28.2368 43.1662 28.1054 43.6853 27.8482 44.2155L27.0368 45.8881L26.1596 45.4625L26.971 43.79C27.1412 43.4391 27.2283 43.1008 27.2321 42.7752C27.2397 42.4417 27.1625 42.1442 27.0005 41.8825C26.8422 41.6131 26.5954 41.3971 26.2601 41.2344C25.9248 41.0718 25.6024 41.0117 25.2928 41.0541C24.987 41.0888 24.7055 41.2124 24.4484 41.4247C24.195 41.6293 23.9832 41.9071 23.813 42.258L23.0016 43.9306Z" fill="black"/>
<path d="M40.3494 24.8111L43.167 30.3182L42.2442 30.926L37.9114 22.3384L44.5766 25.8407L43.9912 18.3341L50.1696 25.7061L49.2468 26.3139L45.3001 21.5505L45.7421 27.6104L40.3494 24.8111Z" fill="black"/>
<path d="M56.1252 18.4711C56.2726 19.1397 56.548 19.7046 56.9514 20.1659C57.3633 20.6254 57.8567 20.9514 58.4317 21.1442C59.0067 21.3369 59.6158 21.3624 60.259 21.2206C60.9107 21.0769 61.4526 20.7977 61.8848 20.383C62.3254 19.9663 62.6318 19.4639 62.8039 18.8758C62.9844 18.2857 63.001 17.6564 62.8536 16.9878C62.7062 16.3192 62.4266 15.7552 62.0147 15.2957C61.6113 14.8344 61.1221 14.5074 60.5471 14.3147C59.9806 14.1201 59.3715 14.0946 58.7198 14.2382C58.0766 14.38 57.5346 14.6593 57.094 15.0759C56.6533 15.4925 56.3428 15.9958 56.1622 16.5859C55.9901 17.174 55.9778 17.8024 56.1252 18.4711ZM54.9826 18.7229C54.8389 18.0712 54.8165 17.4461 54.9153 16.8474C55.0207 16.2385 55.2317 15.6861 55.5484 15.1903C55.8632 14.686 56.2705 14.259 56.7702 13.9092C57.2681 13.551 57.8387 13.301 58.4819 13.1592C59.1336 13.0155 59.7564 13.0024 60.3503 13.12C60.9508 13.2273 61.4999 13.4435 61.9975 13.7686C62.4933 14.0853 62.9128 14.4987 63.256 15.0088C63.6058 15.5085 63.8525 16.0842 63.9962 16.7359C64.138 17.3791 64.1562 18.0052 64.0508 18.6142C63.9539 19.2213 63.748 19.777 63.4332 20.2812C63.1165 20.777 62.7092 21.2041 62.2114 21.5623C61.7201 21.9102 61.1486 22.156 60.4969 22.2997C59.8537 22.4415 59.2318 22.4588 58.6313 22.3515C58.0289 22.2358 57.4799 22.0196 56.9841 21.7029C56.4864 21.3778 56.0617 20.9611 55.7101 20.4529C55.3669 19.9428 55.1244 19.3662 54.9826 18.7229Z" fill="black"/>
<path d="M74.1943 16.7567L75.4212 16.8974L78.139 21.7236L76.7829 21.568L74.1943 16.7567ZM73.1057 11.9866L74.2035 12.1125L73.1666 21.1532L72.0688 21.0273L73.1057 11.9866ZM73.6017 13.0249L73.7128 12.0562L75.5596 12.268C76.1451 12.3352 76.6532 12.5069 77.0839 12.7831C77.5241 13.0517 77.8545 13.4036 78.075 13.8389C78.3041 14.2752 78.3866 14.7732 78.3224 15.3328C78.2592 15.8839 78.0661 16.3502 77.7432 16.7319C77.4299 17.106 77.0279 17.3783 76.5373 17.5488C76.0562 17.7118 75.523 17.7596 74.9375 17.6925L73.0906 17.4807L73.2017 16.512L75.0486 16.7238C75.436 16.7683 75.784 16.7384 76.0926 16.6342C76.4098 16.531 76.6649 16.3596 76.8582 16.1201C77.06 15.8815 77.1821 15.5771 77.2246 15.2069C77.2671 14.8367 77.217 14.5125 77.0744 14.2345C76.9405 13.9574 76.7307 13.7327 76.4452 13.5604C76.1682 13.389 75.836 13.2811 75.4485 13.2367L73.6017 13.0249Z" fill="black"/>
<path d="M85.1647 23.735L85.5803 22.7816L89.787 24.6155L89.3714 25.5689L85.1647 23.735ZM88.3857 16.3465L88.8014 15.3932L93.008 17.2271L92.5924 18.1804L88.3857 16.3465ZM86.9311 19.6833L87.3467 18.7299L91.315 20.4599L90.8994 21.4132L86.9311 19.6833ZM88.2413 15.149L89.2542 15.5906L85.6176 23.9324L84.6046 23.4908L88.2413 15.149Z" fill="black"/>
<path d="M109.606 29.9445L110.281 30.8194L103.076 36.3787L102.401 35.5039L109.606 29.9445ZM109.156 31.0636L109.979 30.4283L111.115 31.9C111.475 32.3666 111.706 32.8505 111.808 33.3519C111.922 33.8547 111.9 34.3369 111.742 34.7985C111.589 35.2669 111.289 35.6732 110.843 36.0173C110.404 36.3562 109.935 36.5429 109.437 36.5775C108.95 36.6136 108.475 36.5153 108.01 36.2824C107.558 36.0511 107.152 35.7022 106.792 35.2356L105.656 33.7639L106.48 33.1285L107.615 34.6003C107.975 35.0668 108.38 35.3569 108.829 35.4703C109.283 35.5906 109.729 35.4814 110.168 35.1425C110.614 34.7984 110.833 34.394 110.825 33.9296C110.829 33.4667 110.651 33.0019 110.291 32.5354L109.156 31.0636Z" fill="black"/>
<path d="M114.144 46.1478L114.579 47.3035L111.528 51.926L111.047 50.6487L114.144 46.1478ZM117.89 43.0001L118.279 44.0341L109.764 47.2424L109.374 46.2083L117.89 43.0001ZM117.193 43.9156L118.105 43.5718L118.761 45.3115C118.968 45.863 119.048 46.3934 118.999 46.9026C118.961 47.417 118.799 47.8717 118.512 48.2667C118.229 48.6698 117.824 48.9707 117.297 49.1693C116.778 49.3648 116.274 49.4062 115.787 49.2933C115.312 49.1855 114.886 48.9524 114.51 48.5939C114.145 48.2404 113.859 47.7879 113.651 47.2364L112.996 45.4968L113.908 45.1531L114.563 46.8927C114.701 47.2576 114.887 47.5536 115.12 47.7804C115.357 48.0154 115.626 48.1641 115.927 48.2265C116.232 48.297 116.558 48.2666 116.907 48.1352C117.256 48.0039 117.521 47.8112 117.703 47.5574C117.889 47.3116 117.993 47.0223 118.016 46.6896C118.041 46.365 117.986 46.0202 117.848 45.6552L117.193 43.9156Z" fill="black"/>
<path d="M117.603 58.9721C116.919 58.992 116.312 59.1571 115.784 59.4673C115.256 59.7861 114.843 60.21 114.546 60.7389C114.25 61.2677 114.111 61.8614 114.13 62.5198C114.15 63.1868 114.323 63.7713 114.649 64.2734C114.976 64.7841 115.413 65.1789 115.958 65.4577C116.504 65.7453 117.12 65.8791 117.804 65.8592C118.488 65.8392 119.095 65.6698 119.623 65.351C120.151 65.0408 120.564 64.6213 120.861 64.0924C121.158 63.5722 121.296 62.9786 121.277 62.3115C121.258 61.6531 121.085 61.0686 120.758 60.5579C120.431 60.0472 119.994 59.6481 119.448 59.3605C118.903 59.0816 118.288 58.9521 117.603 58.9721ZM117.569 57.8026C118.236 57.7831 118.855 57.8778 119.424 58.0867C120.003 58.3039 120.506 58.6144 120.934 59.0181C121.371 59.4216 121.714 59.9014 121.964 60.4577C122.223 61.0137 122.362 61.6209 122.382 62.2793C122.401 62.9464 122.298 63.5606 122.071 64.1221C121.854 64.6921 121.539 65.1911 121.126 65.6193C120.723 66.0472 120.238 66.3822 119.673 66.6241C119.117 66.8744 118.505 67.0092 117.838 67.0287C117.18 67.0479 116.561 66.9488 115.983 66.7316C115.404 66.523 114.897 66.217 114.46 65.8135C114.032 65.4098 113.689 64.93 113.43 64.3739C113.18 63.8263 113.045 63.219 113.026 62.5519C113.006 61.8935 113.106 61.2794 113.323 60.7095C113.549 60.1393 113.864 59.6403 114.268 59.2123C114.68 58.7841 115.169 58.4448 115.734 58.1942C116.299 57.9523 116.911 57.8218 117.569 57.8026Z" fill="black"/>
<path d="M114.645 75.3004C114.236 75.3907 113.865 75.5022 113.533 75.6348C113.199 75.7758 112.915 75.9595 112.681 76.1862C112.447 76.4128 112.276 76.6999 112.167 77.0474C112.023 77.5108 112.035 77.9231 112.204 78.2843C112.373 78.6456 112.656 78.8881 113.053 79.0118C113.442 79.133 113.781 79.1387 114.069 79.0288C114.357 78.919 114.618 78.737 114.852 78.483C115.091 78.2398 115.32 77.9707 115.539 77.6759C115.68 77.4839 115.85 77.2736 116.049 77.0449C116.255 76.8188 116.487 76.6142 116.744 76.4309C117.009 76.2503 117.302 76.1239 117.625 76.0517C117.944 75.9879 118.302 76.0178 118.699 76.1416C119.13 76.2756 119.481 76.5031 119.753 76.8239C120.025 77.1447 120.197 77.5251 120.269 77.965C120.349 78.4075 120.313 78.8729 120.161 79.361C120.014 79.8327 119.795 80.2139 119.505 80.5047C119.22 80.8064 118.899 81.0375 118.54 81.1981C118.19 81.3612 117.839 81.4654 117.49 81.5107L117.251 80.4422C117.499 80.4017 117.753 80.3309 118.011 80.2299C118.27 80.1288 118.502 79.979 118.71 79.7803C118.914 79.5898 119.069 79.325 119.175 78.9858C119.322 78.5141 119.313 78.1346 119.148 77.8473C118.992 77.5626 118.773 77.3764 118.492 77.2887C118.252 77.214 118.009 77.2064 117.764 77.2661C117.526 77.3283 117.272 77.4759 116.999 77.7088C116.733 77.9525 116.434 78.2997 116.103 78.7503C115.948 78.9562 115.764 79.1667 115.552 79.382C115.34 79.5972 115.097 79.7802 114.823 79.9309C114.555 80.0924 114.254 80.1984 113.92 80.2488C113.595 80.3018 113.234 80.2665 112.837 80.1427C112.456 80.0241 112.136 79.8427 111.876 79.5983C111.614 79.3623 111.415 79.0825 111.28 78.759C111.142 78.4437 111.066 78.1067 111.05 77.7479C111.032 77.3974 111.078 77.0484 111.186 76.7008C111.333 76.2292 111.569 75.8216 111.894 75.478C112.224 75.1453 112.603 74.8774 113.029 74.6744C113.461 74.4822 113.897 74.3503 114.337 74.2786L114.645 75.3004Z" fill="black"/>
<path d="M114.536 89.7126L115.401 90.289L112.195 95.1039L111.329 94.5275L112.626 92.5799L105.918 88.1121L106.53 87.1924L113.239 91.6602L114.536 89.7126Z" fill="black"/>
<path d="M101.136 97.9671L101.493 99.0187L98.3755 101.573L97.4148 101.015L101.136 97.9671ZM102.03 102.813L100.927 99.0456L100.859 98.7987L99.8782 95.468L100.834 94.6854L103.62 104.754L94.2969 100.04L95.2523 99.2576L98.2552 100.831L98.5004 100.966L102.03 102.813Z" fill="black"/>
<path d="M92.6353 110.203L93.0301 111.165L87.6783 113.361L87.2834 112.399L89.4482 111.51L86.3881 104.054L87.4104 103.634L90.4705 111.091L92.6353 110.203Z" fill="black"/>
</svg>
