<svg width="55" height="55" viewBox="0 0 55 55" fill="none" xmlns="http://www.w3.org/2000/svg">
<path d="M27.5 1.00959L30.8415 6.73574C31.4294 7.74305 32.7459 8.04438 33.7134 7.39305L39.3135 3.62286L39.746 10.1087C39.8249 11.2915 40.9007 12.1522 42.0719 11.9696L48.7627 10.9264L46.2657 16.8847C45.7983 17.9999 46.4092 19.273 47.5715 19.6063L53.9898 21.4468L49.074 25.7589C48.1571 26.5632 48.1571 27.9906 49.074 28.795L53.9898 33.107L47.5715 34.9475C46.4092 35.2808 45.7983 36.5539 46.2657 37.6691L48.7627 43.6274L42.0719 42.5842C40.9007 42.4016 39.8249 43.2624 39.746 44.4451L39.3135 50.931L33.7134 47.1608C32.7459 46.5095 31.4294 46.8108 30.8415 47.8181L27.5 53.5442L24.1585 47.8181C23.5706 46.8108 22.2541 46.5095 21.2867 47.1608L15.6865 50.931L15.254 44.4451C15.1751 43.2624 14.0993 42.4016 12.9281 42.5842L6.23727 43.6274L8.73431 37.6691C9.20167 36.554 8.59085 35.2808 7.42855 34.9475L1.01019 33.107L5.92595 28.795C6.8429 27.9906 6.8429 26.5632 5.92595 25.7589L1.01019 21.4468L7.42855 19.6063C8.59085 19.273 9.20167 17.9999 8.73431 16.8847L6.23727 10.9264L12.9281 11.9696C14.0993 12.1522 15.1751 11.2915 15.254 10.1087L15.6865 3.62286L21.2867 7.39305C22.2541 8.04438 23.5706 7.74305 24.1585 6.73574L27.5 1.00959Z" stroke="#385182" stroke-width="2"/>
</svg>
