<svg width="83" height="57" viewBox="0 0 83 57" fill="none" xmlns="http://www.w3.org/2000/svg">
<path fill-rule="evenodd" clip-rule="evenodd" d="M1.23353 1.97225C3.29448 0.999365 28.6488 -0.423665 34.8074 0.11995C43.9792 0.929529 53.0623 4.16818 58.9814 8.73937C63.6903 12.3759 66.7365 17.1597 67.2514 21.7265C67.549 24.3654 67.3434 25.8137 66.2845 28.544L65.3701 30.9013L67.1611 32.3769C73.1047 37.2745 77.9904 44.1941 80.0469 50.6278C80.3602 51.6079 80.6739 52.3827 80.7441 52.3497C80.8142 52.3164 80.9116 50.5901 80.9604 48.5133C81.009 46.4365 81.1687 44.5972 81.3149 44.426C81.8073 43.8501 82.5007 44.3768 82.6477 45.4386C82.9247 47.439 82.6694 55.1617 82.2902 56.2517C81.9896 57.1159 81.7196 57.1797 80.3611 56.7082C79.5355 56.4215 78.6298 55.7248 76.452 53.7007C72.915 50.4134 72.3794 49.8026 72.5638 49.2664C72.69 48.8999 72.8247 48.9023 73.5265 49.2831C73.9755 49.5265 75.2946 50.5024 76.4583 51.4516C77.622 52.4009 78.6234 53.156 78.6837 53.13C78.9017 53.0358 77.1879 49.0263 76.0102 46.8747C73.7937 42.8255 71.5836 39.8099 68.6681 36.8567C67.0749 35.243 64.1056 32.6179 63.9762 32.7088C63.9375 32.736 63.4642 33.2624 62.9246 33.8788C61.0661 36.0015 57.5208 38.4685 54.3226 39.8649C45.2536 43.824 33.9874 42.4945 29.8727 36.9795C29.3431 36.2696 28.9323 35.3132 28.7518 34.3693C28.5026 33.0662 28.5415 32.6673 29.0616 31.1811C29.926 28.7109 31.4474 27.2813 34.9738 25.625C38.9267 23.7681 43.2049 23.148 48.2137 23.7056C50.9384 24.0089 58.5223 26.634 61.3588 28.2556C62.419 28.8617 63.3629 29.3214 63.4567 29.2773C63.5502 29.2331 63.9225 28.4691 64.2841 27.5798C65.4389 24.7389 65.412 21.8588 64.2022 18.8046C60.7994 10.2153 48.9578 3.5214 34.8387 2.20581C29.983 1.75326 4.36208 2.62558 1.62253 3.30423C0.68413 3.53675 0.308158 3.52741 0.147944 3.26741C-0.176217 2.74103 -0.0328619 2.56986 1.23353 1.97225ZM30.3877 32.9683C30.1971 36.1859 33.7568 38.8474 39.5139 39.7919C44.7033 40.643 49.5698 39.817 54.6504 37.2225C57.4852 35.7749 59.7435 34.1559 61.1786 32.5431C62.3919 31.1796 62.5335 31.3846 59.093 29.5287C56.2323 27.9856 50.4999 25.9178 48.3164 25.6413C45.698 25.3097 42.8005 25.3175 40.3224 25.6624C36.3138 26.2205 32.3414 28.4594 31.085 30.8686C30.8075 31.4009 30.5496 31.8829 30.5115 31.9395C30.4737 31.9962 30.4179 32.4593 30.3877 32.9683Z" fill="#032342"/>
</svg>
