<svg width="1023" height="52" viewBox="0 0 1023 52" fill="none" xmlns="http://www.w3.org/2000/svg">
<path d="M25.9352 4.33337C13.9752 4.33337 4.26855 14.04 4.26855 26C4.26855 37.96 13.9752 47.6667 25.9352 47.6667C37.8952 47.6667 47.6019 37.96 47.6019 26C47.6019 14.04 37.9169 4.33337 25.9352 4.33337ZM32.4352 30.8317L26.1519 34.45C25.3719 34.905 24.5052 35.1217 23.6602 35.1217C22.7936 35.1217 21.9486 34.905 21.1686 34.45C19.6086 33.54 18.6769 31.9367 18.6769 30.1167V22.8584C18.6769 21.06 19.6086 19.435 21.1686 18.525C22.7286 17.615 24.5919 17.615 26.1736 18.525L32.4569 22.1434C34.0169 23.0534 34.9485 24.6567 34.9485 26.4767C34.9485 28.2967 34.0169 29.9217 32.4352 30.8317Z" fill="#D6D6D6"/>
<g filter="url(#filter0_d_2_779)">
<path d="M996.935 4.33337C984.975 4.33337 975.269 14.04 975.269 26C975.269 37.96 984.975 47.6667 996.935 47.6667C1008.9 47.6667 1018.6 37.96 1018.6 26C1018.6 14.04 1008.92 4.33337 996.935 4.33337ZM1003.44 30.8317L997.152 34.45C996.372 34.905 995.505 35.1217 994.66 35.1217C993.794 35.1217 992.949 34.905 992.169 34.45C990.609 33.54 989.677 31.9367 989.677 30.1167V22.8584C989.677 21.06 990.609 19.435 992.169 18.525C993.729 17.615 995.592 17.615 997.174 18.525L1003.46 22.1434C1005.02 23.0534 1005.95 24.6567 1005.95 26.4767C1005.95 28.2967 1005.02 29.9217 1003.44 30.8317Z" fill="#385182"/>
</g>
<defs>
<filter id="filter0_d_2_779" x="951" y="-11" width="92" height="92" filterUnits="userSpaceOnUse" color-interpolation-filters="sRGB">
<feFlood flood-opacity="0" result="BackgroundImageFix"/>
<feColorMatrix in="SourceAlpha" type="matrix" values="0 0 0 0 0 0 0 0 0 0 0 0 0 0 0 0 0 0 127 0" result="hardAlpha"/>
<feOffset dy="9"/>
<feGaussianBlur stdDeviation="10"/>
<feComposite in2="hardAlpha" operator="out"/>
<feColorMatrix type="matrix" values="0 0 0 0 0 0 0 0 0 0 0 0 0 0 0 0 0 0 0.15 0"/>
<feBlend mode="normal" in2="BackgroundImageFix" result="effect1_dropShadow_2_779"/>
<feBlend mode="normal" in="SourceGraphic" in2="effect1_dropShadow_2_779" result="shape"/>
</filter>
</defs>
</svg>
