<svg width="58" height="152" viewBox="0 0 58 152" fill="none" xmlns="http://www.w3.org/2000/svg">
<path d="M0.0606438 147.58C-0.12816 148.099 0.140226 148.674 0.660101 148.863L9.13195 151.94C9.65183 152.128 10.2263 151.86 10.4151 151.34C10.6039 150.82 10.3355 150.246 9.81567 150.057L2.28514 147.322L5.02002 139.791C5.20882 139.272 4.94043 138.697 4.42056 138.508C3.90068 138.319 3.32619 138.588 3.13738 139.108L0.0606438 147.58ZM47.1146 0.657284C53.3309 18.549 58.4528 47.3683 53.6192 75.6071C48.7923 103.806 34.0564 131.374 0.578081 147.014L1.42584 148.829C35.632 132.849 50.6831 104.632 55.5934 75.945C60.4969 47.2981 55.306 18.1309 49.0067 -6.79001e-05L47.1146 0.657284Z" fill="black"/>
</svg>
