<svg width="19" height="16" viewBox="0 0 19 16" fill="none" xmlns="http://www.w3.org/2000/svg">
<path d="M14.1177 0H4.70588C1.88235 0 0 1.41177 0 4.70588V11.2941C0 14.5882 1.88235 16 4.70588 16H14.1177C16.9412 16 18.8235 14.5882 18.8235 11.2941V4.70588C18.8235 1.41177 16.9412 0 14.1177 0ZM14.56 5.73177L11.6141 8.08471C10.9929 8.58353 10.2024 8.82824 9.41177 8.82824C8.62118 8.82824 7.82118 8.58353 7.20942 8.08471L4.26353 5.73177C3.96236 5.48706 3.9153 5.0353 4.15059 4.73412C4.3953 4.43294 4.83765 4.37647 5.13883 4.62118L8.08471 6.97412C8.80001 7.54824 10.0141 7.54824 10.7294 6.97412L13.6753 4.62118C13.9765 4.37647 14.4282 4.42353 14.6635 4.73412C14.9082 5.0353 14.8612 5.48706 14.56 5.73177Z" fill="#385182"/>
</svg>
