<svg width="19" height="19" viewBox="0 0 19 19" fill="none" xmlns="http://www.w3.org/2000/svg">
<path d="M8.59755 12.3026L6.84004 14.0601C6.46954 14.4306 5.88054 14.4306 5.50053 14.0696C5.39603 13.9651 5.29153 13.8701 5.18703 13.7656C4.20853 12.7776 3.32502 11.7421 2.53652 10.6591C1.75751 9.57606 1.13051 8.49305 0.674504 7.41955C0.228001 6.33654 0 5.30103 0 4.31303C0 3.66702 0.114001 3.04952 0.342002 2.47952C0.570003 1.90001 0.931006 1.36801 1.43451 0.893005C2.04251 0.294502 2.70752 0 3.41052 0C3.67652 0 3.94252 0.0570004 4.18003 0.171001C4.42703 0.285002 4.64553 0.456003 4.81653 0.703004L7.02054 3.80952C7.19154 4.04702 7.31504 4.26553 7.40054 4.47453C7.48605 4.67403 7.53355 4.87353 7.53355 5.05403C7.53355 5.28203 7.46705 5.51003 7.33404 5.72853C7.21054 5.94704 7.03004 6.17504 6.80204 6.40304L6.08004 7.15354C5.97554 7.25804 5.92804 7.38155 5.92804 7.53355C5.92804 7.60955 5.93754 7.67605 5.95654 7.75205C5.98504 7.82805 6.01354 7.88505 6.03254 7.94205C6.20354 8.25555 6.49804 8.66405 6.91604 9.15806C7.34354 9.65206 7.79955 10.1556 8.29355 10.6591C8.38855 10.7541 8.49305 10.8491 8.58805 10.9441C8.96805 11.3146 8.97755 11.9226 8.59755 12.3026Z" fill="#385182"/>
<path d="M18.9716 15.5135C18.9716 15.7795 18.9241 16.055 18.8291 16.321C18.8006 16.397 18.7721 16.473 18.7341 16.549C18.5726 16.891 18.3636 17.214 18.0881 17.518C17.6226 18.031 17.1096 18.4015 16.5301 18.639C16.5206 18.639 16.5111 18.6485 16.5016 18.6485C15.9411 18.8765 15.3331 19 14.6776 19C13.7086 19 12.6731 18.772 11.5806 18.3065C10.4881 17.841 9.39555 17.214 8.31255 16.4255C7.94204 16.15 7.57154 15.8745 7.22004 15.58L10.3266 12.4735C10.5926 12.673 10.8301 12.825 11.0296 12.9295C11.0771 12.9485 11.1341 12.977 11.2006 13.0055C11.2766 13.034 11.3526 13.0435 11.4381 13.0435C11.5996 13.0435 11.7231 12.9865 11.8276 12.882L12.5496 12.1695C12.7871 11.932 13.0151 11.7515 13.2336 11.6375C13.4521 11.5045 13.6706 11.438 13.9081 11.438C14.0886 11.438 14.2786 11.476 14.4876 11.5615C14.6966 11.647 14.9151 11.7705 15.1526 11.932L18.2971 14.1645C18.5441 14.3355 18.7151 14.535 18.8196 14.7725C18.9146 15.01 18.9716 15.2475 18.9716 15.5135Z" fill="#385182"/>
</svg>
