<svg width="60" height="52" viewBox="0 0 60 52" fill="none" xmlns="http://www.w3.org/2000/svg">
<path d="M31.0944 13.6353L32.9384 4.75005L35.5113 15.3162L35.7427 16.2664L36.6003 15.7965L47.9528 9.5772L38.8499 19.3992L37.6824 20.659H39.4H50.3009L40.0007 24.1262L38.0352 24.7878L39.9693 25.5364L55.9845 31.7352H37.76H36.7441L37.0433 32.7061L39.4286 40.447L33.4116 34.4005L32.3094 33.2928L32.1347 34.8457L30.6707 47.8615L27.0864 33.9149L26.7805 32.7245L25.8618 33.541L14.9785 43.2135L22.1489 29.0793L22.64 28.1112L21.5607 27.9943L4.41417 26.1376L20.6131 22.2946L22.2216 21.913L20.8751 20.9539L13.2117 15.4959L22.1327 17.7967L23.4936 18.1477L23.0276 16.8218L18.0717 2.72207L29.8405 14.0239L30.8188 14.9633L31.0944 13.6353Z" stroke="#385182" stroke-opacity="0.1" stroke-width="1.5"/>
</svg>
