<svg width="104" height="69" viewBox="0 0 104 69" fill="none" xmlns="http://www.w3.org/2000/svg">
<path fill-rule="evenodd" clip-rule="evenodd" d="M0.00112688 1.90798C0.0241312 4.70977 11.9958 33.515 15.8894 40.0343C21.6879 49.7432 30.1315 58.0497 38.3611 62.1412C44.9081 65.3963 51.8382 66.1964 57.1753 64.3135C60.2592 63.2255 61.7546 62.2204 64.2149 59.5831L66.339 57.306L68.9317 58.4943C77.5363 62.4377 87.8166 64.1252 96.0466 62.9448C97.3004 62.7649 98.3269 62.6959 98.3278 62.7912C98.3283 62.8866 96.4669 63.9213 94.1912 65.0906C91.9152 66.2596 89.9619 67.4239 89.8502 67.6775C89.475 68.5314 90.4294 69.0154 91.6849 68.6077C94.0501 67.84 102.473 63.4104 103.479 62.4058C104.276 61.6093 104.203 61.2763 102.954 60.0271C102.195 59.268 100.939 58.6404 97.5316 57.3187C91.9978 55.1722 91.0346 54.9079 90.5388 55.3999C90.2001 55.7362 90.2747 55.8839 91.0718 56.4555C91.5815 56.8214 93.3681 57.7563 95.0421 58.5335C96.7161 59.3107 98.0882 60.0128 98.0915 60.0935C98.1037 60.3851 92.7437 60.6428 89.7297 60.4958C84.057 60.2188 79.5336 59.3939 74.7024 57.7553C72.0624 56.8599 67.566 54.9856 67.5976 54.7937C67.6071 54.7363 67.9376 53.9301 68.3325 53.0023C69.692 49.8071 70.5319 44.5613 70.3705 40.2743C69.9125 28.1182 62.4184 16.3721 54.1069 14.7829C53.037 14.5784 51.7575 14.6377 50.6148 14.945C49.0372 15.3691 48.6159 15.6263 47.2465 16.9997C44.9706 19.2822 44.199 21.7326 44.2477 26.522C44.3018 31.8909 45.9008 36.9555 49.1954 42.1956C50.9876 45.0462 57.9499 52.024 61.263 54.2902C62.5015 55.1374 63.5154 55.9345 63.5165 56.0618C63.5175 56.189 62.8696 57.011 62.0773 57.8884C59.5455 60.6912 56.3389 62.2081 52.3071 62.5103C40.9685 63.3593 27.2212 53.8576 18.218 38.9488C15.1216 33.8215 2.39711 5.01722 1.68535 1.62293C1.44161 0.460224 1.23034 0.049428 0.856542 0.011857C0.099881 -0.0639837 -0.013236 0.186481 0.00112688 1.90798ZM49.9362 17.5066C53.4006 15.568 58.2528 18.0756 62.3761 23.9355C66.0927 29.2178 67.7777 35.0435 67.617 42.0558C67.5273 45.9683 66.9397 49.3353 65.9189 51.7886C65.056 53.8627 65.3589 53.9092 61.4633 51.1007C58.2243 48.7656 52.8691 43.5361 51.3958 41.2698C49.6291 38.552 48.0893 35.3431 47.1473 32.4173C45.6237 27.6842 45.9825 22.0886 47.9815 19.4053C48.4232 18.8125 48.8195 18.2685 48.862 18.196C48.9046 18.1237 49.388 17.8133 49.9362 17.5066Z" fill="#1D1E26"/>
</svg>
