<svg width="1183" height="331" viewBox="0 0 1183 331" fill="none" xmlns="http://www.w3.org/2000/svg">
<path d="M0.273514 101.958C32.8802 80.7043 67.355 60.8364 103.358 42.4701C119.322 34.2689 136.135 26.2986 155.495 22.6022C204.914 13.2458 255.183 34.6154 292.885 58.0641C327.699 79.7802 358.607 104.269 384.93 130.836C411.084 157.288 432.991 186.166 467.466 207.651C501.941 229.252 553.568 242.073 596.025 228.674C621.329 220.704 639.5 204.648 649.52 186.974C659.54 169.301 662.087 150.126 662.767 131.183C663.446 109.467 662.087 86.7109 677.202 67.6515C692.996 47.8991 726.621 35.5395 759.398 37.2721C806.1 39.6979 840.575 66.4964 874.71 88.4435C918.016 116.282 970.662 139.615 1029.93 144.582C1089.03 149.549 1154.75 132.569 1182.61 96.7603" stroke="white" stroke-opacity="0.04" stroke-miterlimit="10"/>
<path d="M4.18086 110.853C36.1082 89.9459 70.0735 70.54 105.737 52.6358C121.531 44.6655 138.174 36.8108 157.025 33.2299C195.066 25.9527 233.786 36.9263 266.902 52.8668C275.903 57.2562 284.564 61.8767 292.546 66.7281C327.191 87.4046 358.099 110.969 384.422 136.612C410.576 162.025 432.653 190.094 466.788 211.001C485.979 222.668 509.924 232.024 534.719 236.298C556.457 239.995 579.044 239.764 599.423 233.526C603.159 232.371 606.555 231.1 609.952 229.714C630.841 220.935 645.955 206.381 654.956 190.787C657.843 185.705 660.221 180.622 662.259 175.424C667.353 161.794 669.561 147.701 670.92 133.725C673.127 111.662 674.146 88.9063 690.62 70.078C706.923 51.3652 739.19 39.2365 771.287 40.8537C816.97 43.0484 850.936 68.4608 884.561 89.1373C887.279 90.7544 889.826 92.3716 892.543 93.9887C933.472 118.015 982.042 137.19 1035.71 140.771C1092.77 144.698 1155.77 127.487 1182.1 92.3716" stroke="white" stroke-opacity="0.04" stroke-miterlimit="10"/>
<path d="M8.08625 119.747C39.5041 99.1863 72.9599 80.127 108.114 62.6848C123.738 54.9456 140.041 47.3219 158.722 43.8565C196.084 36.6949 234.125 46.9753 266.902 62.1073C275.733 66.2657 284.394 70.6551 292.376 75.2755C326.681 95.0279 357.589 117.553 384.252 142.272C410.575 166.76 432.822 193.905 466.618 214.12C486.487 226.017 511.112 235.72 536.586 240.341C558.833 244.384 582.1 244.384 603.328 238.146C607.064 236.991 610.8 235.72 614.197 234.334C635.765 225.44 651.389 210.423 660.899 194.367C663.956 189.169 666.503 183.971 668.711 178.542C674.315 164.566 677.202 150.127 679.41 136.034C683.146 113.51 686.713 90.985 704.375 72.2723C721.187 54.5991 752.266 42.8169 783.514 44.2031C828.178 46.2823 861.634 70.3086 894.75 89.5989C897.297 91.1006 900.015 92.6022 902.732 94.1039C942.981 116.513 990.193 134.071 1041.99 136.727C1097.01 139.615 1157.3 122.173 1182.1 87.7507" stroke="white" stroke-opacity="0.04" stroke-miterlimit="10"/>
<path d="M11.9916 128.642C42.7302 108.427 75.8464 89.83 110.491 72.8498C125.945 65.3416 142.079 57.9489 160.25 54.4836C196.933 47.4374 234.464 57.0248 266.731 71.3482C275.562 75.2756 284.054 79.434 291.866 83.8234C326.001 102.536 356.909 124.137 383.572 147.816C410.065 171.381 432.312 197.602 465.938 217.239C486.657 229.367 511.791 239.417 538.114 244.384C560.871 248.658 584.986 249.004 606.894 242.882C610.8 241.727 614.536 240.456 618.272 239.07C640.689 230.06 656.653 214.582 666.673 198.064C669.899 192.75 672.617 187.321 674.824 181.892C680.768 167.569 684.504 152.784 687.731 138.46C692.826 115.589 698.94 93.0643 717.96 74.5825C735.113 57.8334 765.002 46.3978 795.571 47.6684C839.216 49.5166 872.163 72.1568 904.6 90.1765C907.147 91.5626 909.694 92.9488 912.412 94.3349C951.981 115.242 998.004 131.067 1047.76 132.685C1100.75 134.417 1158.32 116.86 1181.59 83.1303" stroke="white" stroke-opacity="0.04" stroke-miterlimit="10"/>
<path d="M15.7271 137.651C45.9562 117.783 78.393 99.5326 112.698 83.13C127.813 75.8529 143.776 68.6912 161.778 65.3413C197.781 58.4107 234.633 67.305 266.561 80.8198C275.222 84.5162 283.713 88.4436 291.525 92.602C325.491 110.391 356.229 130.952 383.062 153.707C409.555 176.232 432.142 201.644 465.428 220.588C486.996 232.832 512.639 243.344 539.642 248.657C562.908 253.278 587.872 253.855 610.459 247.733C614.535 246.694 618.441 245.308 622.177 243.806C645.444 234.681 661.747 218.74 672.276 201.76C675.673 196.331 678.56 190.786 680.937 185.126C687.391 170.456 691.806 155.44 695.882 140.77C702.505 117.437 710.827 95.1432 731.206 76.7769C748.698 60.9519 777.569 49.8629 807.458 51.018C849.915 52.6351 882.521 74.0047 914.449 90.6383C916.996 91.9089 919.543 93.295 922.091 94.5656C960.981 113.856 1005.65 128.064 1053.54 128.641C1104.48 129.334 1159.34 111.43 1181.25 78.5096" stroke="white" stroke-opacity="0.04" stroke-miterlimit="10"/>
<path d="M19.6325 146.546C49.3521 127.025 81.2795 109.236 115.075 93.2957C130.02 86.2495 145.814 79.3189 163.306 75.969C198.63 69.1539 234.803 77.3552 266.39 90.0614C275.051 93.5267 283.373 97.3386 291.185 101.15C324.811 117.9 355.549 137.536 382.552 159.368C409.214 180.969 431.971 205.457 464.917 223.823C487.335 236.298 513.488 247.041 541.17 252.816C565.115 257.783 590.589 258.592 613.855 252.47C618.101 251.43 622.007 250.044 625.913 248.543C650.028 239.302 666.671 222.899 677.71 205.457C681.276 199.912 684.333 194.137 686.881 188.477C693.844 173.576 698.938 158.097 703.863 143.312C712.015 119.632 722.714 97.4541 744.452 79.2033C762.284 64.4179 789.965 53.5599 819.175 54.5995C860.613 55.9856 892.71 75.969 924.128 91.332C926.676 92.6026 929.053 93.7577 931.601 94.9129C969.812 112.586 1013.12 125.177 1059.14 124.83C1108.05 124.368 1160.19 106.348 1180.57 74.0053" stroke="white" stroke-opacity="0.04" stroke-miterlimit="10"/>
<path d="M23.5398 155.44C52.5801 136.265 84.1679 118.823 117.454 103.344C132.229 96.4138 147.683 89.8296 165.005 86.4798C199.65 79.7802 235.144 87.2884 266.392 99.186C274.883 102.42 283.204 106.001 291.017 109.582C324.472 125.407 355.211 144.004 382.213 164.796C409.046 185.473 431.973 208.922 464.579 226.71C487.845 239.416 514.678 250.506 542.869 256.628C567.324 261.826 593.647 262.981 617.593 256.859C621.838 255.819 626.084 254.433 630.16 252.931C654.955 243.575 672.107 226.71 683.655 208.806C687.392 203.03 690.618 197.255 693.335 191.364C700.808 176.116 706.582 160.291 712.526 145.275C722.036 121.133 734.943 99.1861 758.379 81.1663C776.381 67.1895 803.213 56.7935 831.574 57.7176C871.993 58.8727 903.581 77.47 934.489 91.5623C936.867 92.7174 939.414 93.757 941.792 94.7966C979.323 110.968 1021.44 121.826 1065.43 120.44C1112.3 118.938 1161.72 100.688 1180.57 69.0377" stroke="white" stroke-opacity="0.04" stroke-miterlimit="10"/>
<path d="M27.4442 164.336C55.9751 145.507 86.8835 128.527 119.83 113.511C134.435 106.811 149.549 100.458 166.532 97.2236C200.667 90.6395 235.312 97.5702 266.22 108.544C274.712 111.547 282.863 114.897 290.675 118.247C323.961 133.032 354.53 150.705 381.702 170.573C408.535 190.21 431.801 212.85 464.068 230.061C488.184 242.883 515.526 254.434 544.566 260.903C569.53 266.447 596.703 267.833 621.327 261.827C625.743 260.787 630.158 259.401 634.234 257.9C659.878 248.428 677.37 231.216 689.598 212.735C693.504 206.844 696.73 200.837 699.787 194.946C707.769 179.352 714.223 163.296 721.016 147.933C732.054 123.329 747.169 101.613 772.133 83.7089C790.135 70.6561 816.118 60.7221 843.8 61.2997C883.03 62.2238 914.278 79.5504 944.677 92.2567C947.055 93.2963 949.432 94.2204 951.98 95.26C988.832 109.814 1029.59 119.171 1071.71 116.63C1116.54 113.973 1163.24 95.6065 1180.57 64.6495" stroke="white" stroke-opacity="0.04" stroke-miterlimit="10"/>
<path d="M31.1816 173.345C59.203 154.864 89.6019 138.23 122.039 123.676C136.474 117.207 151.419 111.085 168.062 107.851C201.518 101.382 235.483 107.62 266.052 117.785C274.373 120.557 282.525 123.676 290.167 126.91C323.283 140.771 353.852 157.405 381.024 176.233C408.026 194.946 431.463 216.547 463.39 233.18C488.354 246.233 516.206 258.015 545.926 264.946C571.569 270.837 599.421 272.454 624.725 266.447C629.31 265.408 633.726 264.022 637.971 262.52C664.464 252.933 682.296 235.259 695.033 216.316C699.109 210.309 702.506 204.187 705.732 198.065C714.054 182.124 721.356 165.722 729.168 150.243C741.735 125.293 758.888 103.692 785.381 85.9035C803.552 73.7749 828.687 64.1875 855.519 64.6495C893.73 65.3426 924.469 81.2831 954.188 92.8342C956.566 93.7583 958.943 94.5669 961.321 95.491C997.494 108.544 1036.89 116.167 1077.14 112.702C1119.94 109.006 1163.75 90.293 1179.72 60.1446" stroke="white" stroke-opacity="0.04" stroke-miterlimit="10"/>
<path d="M35.088 182.24C62.43 164.104 92.4893 147.933 124.417 133.84C138.512 127.603 153.287 121.712 169.591 118.477C202.367 112.124 235.653 117.669 265.882 127.025C274.204 129.566 282.185 132.454 289.828 135.458C322.604 148.279 353.173 163.989 380.685 181.893C407.857 199.682 431.633 220.358 463.051 236.414C488.864 249.582 517.225 261.827 547.624 269.104C573.778 275.226 602.308 277.19 628.462 271.183C633.217 270.143 637.802 268.757 642.218 267.14C669.39 257.437 687.731 239.302 700.978 219.896C705.223 213.774 708.79 207.421 712.186 201.299C721.017 185.012 728.999 168.263 737.66 152.553C751.756 127.141 770.946 105.656 799.137 88.098C817.139 76.7779 841.594 67.6525 867.747 67.9991C904.939 68.5766 935.168 83.131 964.378 93.296C966.756 94.1046 968.964 94.9132 971.341 95.6062C1006.83 107.042 1045.05 113.048 1083.26 108.543C1124.02 103.692 1165.11 84.8637 1179.72 55.4084" stroke="white" stroke-opacity="0.04" stroke-miterlimit="10"/>
<path d="M38.9934 191.133C65.8259 173.344 95.3758 157.635 126.794 144.004C140.719 137.998 155.324 132.338 171.288 129.219C203.385 122.981 236.162 127.833 265.882 136.381C274.033 138.691 282.015 141.348 289.657 144.12C322.264 156.017 352.663 170.687 380.345 187.667C407.517 204.417 431.632 224.169 462.71 239.647C489.373 252.931 518.244 265.637 549.492 273.261C576.154 279.73 605.534 281.924 632.197 275.918C636.952 274.878 641.708 273.492 646.293 271.875C674.314 262.057 692.995 243.459 706.751 223.591C710.997 217.354 714.903 210.885 718.469 204.532C727.81 187.898 736.471 170.918 746.151 154.862C761.775 129.103 783.003 107.734 812.893 90.2916C830.894 79.7801 854.67 71.1168 879.974 71.3478C916.147 71.6943 945.867 84.8626 974.567 93.7569C976.775 94.45 979.153 95.1431 981.36 95.8361C1016.17 105.655 1053.03 110.044 1089.37 104.499C1128.26 98.6084 1166.47 79.5491 1179.55 50.7868" stroke="white" stroke-opacity="0.04" stroke-miterlimit="10"/>
<path d="M42.7288 200.028C68.8821 182.586 97.9224 167.223 129.001 154.17C142.757 148.394 157.022 142.965 172.646 139.847C204.064 133.724 236.161 137.883 265.541 145.622C273.693 147.701 281.505 150.127 289.147 152.668C321.584 163.526 351.983 177.272 379.665 193.213C407.007 209.038 431.292 227.75 462.03 242.767C489.542 256.282 519.092 269.334 550.85 277.305C578.022 284.12 608.251 286.546 635.593 280.654C640.518 279.615 645.443 278.229 650.028 276.612C678.899 266.678 697.919 247.618 712.185 227.288C716.6 220.82 720.676 214.351 724.412 207.883C734.262 190.902 743.603 173.576 754.132 157.289C771.115 131.068 794.381 109.698 826.138 92.6026C844.14 82.8996 867.067 74.8139 891.691 74.8139C926.676 74.9294 956.056 86.827 984.247 94.3352C986.455 94.9128 988.662 95.4903 991.04 96.0679C1025.01 104.385 1060.67 107.041 1095.14 100.457C1132 93.5267 1167.49 74.2363 1179.04 46.1671" stroke="white" stroke-opacity="0.04" stroke-miterlimit="10"/>
<path d="M46.6371 209.037C72.2809 191.942 100.812 177.041 131.381 164.45C144.967 158.905 159.062 153.707 174.347 150.704C205.085 144.698 236.503 148.278 265.543 155.094C273.525 157.057 281.337 159.136 288.979 161.447C321.077 171.265 351.476 184.087 379.327 199.103C406.839 214.004 431.464 231.677 461.523 246.232C489.884 259.862 519.943 273.261 552.38 281.694C580.232 288.74 611.14 291.512 639.162 285.621C644.256 284.582 649.181 283.195 654.106 281.578C683.826 271.529 703.186 252.007 717.961 231.215C722.546 224.631 726.792 217.932 730.698 211.347C740.888 194.021 751.077 176.463 762.625 159.945C781.306 133.377 806.271 112.008 839.727 95.1433C857.558 86.249 879.975 78.6253 903.751 78.5097C937.716 78.3942 966.417 88.9057 994.269 95.1433C996.476 95.6054 998.684 96.0674 1000.89 96.5295C1034.18 103.229 1068.65 104.384 1101.26 96.7605C1136.07 88.6747 1168.85 69.1534 1178.87 41.8927" stroke="white" stroke-opacity="0.04" stroke-miterlimit="10"/>
<path d="M50.5415 217.932C75.506 201.182 103.697 186.628 133.757 174.499C147.003 169.07 160.929 164.103 175.873 161.216C205.933 155.325 236.671 158.212 265.372 164.334C273.354 166.067 280.996 167.915 288.468 169.995C320.396 178.889 350.795 190.671 378.646 204.648C406.328 218.509 431.123 235.258 460.842 249.235C490.053 262.981 520.621 276.842 553.737 285.621C582.099 293.014 613.686 296.017 642.557 290.126C647.821 289.086 652.916 287.7 657.841 286.083C688.24 275.803 708.11 255.935 723.394 234.681C728.149 227.981 732.565 221.166 736.641 214.351C747.34 196.793 758.209 178.773 770.606 162.024C790.815 134.995 817.648 113.625 852.972 97.107C870.634 88.9057 892.541 81.8596 915.468 81.6286C948.414 81.282 976.605 90.4074 1003.78 95.3744C1005.99 95.7209 1008.02 96.1829 1010.23 96.414C1042.84 101.612 1075.95 101.034 1106.69 92.3711C1139.47 83.2457 1169.53 63.4933 1178.02 36.8103" stroke="white" stroke-opacity="0.04" stroke-miterlimit="10"/>
<path d="M54.4469 226.826C78.9019 210.424 106.414 196.332 136.133 184.665C149.21 179.467 162.966 174.731 177.571 171.843C206.951 166.068 237.01 168.262 265.202 173.576C273.014 175.077 280.656 176.695 288.128 178.543C319.886 186.398 350.115 197.256 378.136 210.308C405.818 223.246 431.122 238.955 460.332 252.47C490.561 266.331 521.47 280.655 555.435 289.664C584.305 297.404 616.742 300.638 646.292 294.862C651.727 293.823 656.821 292.437 661.916 290.704C693.164 280.308 713.374 259.978 729.167 238.262C734.092 231.447 738.678 224.401 742.923 217.586C754.132 199.681 765.68 181.315 779.096 164.335C800.664 136.959 829.365 115.358 866.727 99.3022C884.219 91.794 905.447 85.3254 927.864 84.9789C959.622 84.4013 987.473 92.2561 1014.14 95.8369C1016.17 96.0679 1018.38 96.4145 1020.42 96.6455C1052.35 100.226 1084.1 98.0316 1112.98 88.3287C1143.71 78.0482 1171.06 58.1803 1178.19 32.1903" stroke="white" stroke-opacity="0.04" stroke-miterlimit="10"/>
<path d="M58.1843 235.721C81.96 219.549 109.132 205.919 138.173 194.83C151.079 189.863 164.496 185.358 178.761 182.586C207.462 176.926 237.012 178.427 264.693 182.932C272.335 184.203 279.978 185.589 287.45 187.206C319.038 194.137 349.267 203.955 377.288 216.084C405.14 228.097 430.784 242.767 459.484 255.704C490.563 269.681 521.98 284.466 556.625 293.823C586.005 301.793 619.291 305.374 649.35 299.598C654.785 298.559 660.219 297.173 665.484 295.44C697.581 284.928 718.13 264.136 734.433 241.958C739.528 235.028 744.113 227.866 748.699 220.82C760.417 202.569 772.814 183.972 786.91 166.761C810.006 138.922 840.405 117.206 879.805 101.728C897.127 94.9127 917.846 89.0216 939.414 88.5596C970.152 87.751 997.494 94.2196 1023.65 96.5298C1025.69 96.7609 1027.72 96.8764 1029.76 96.9919C1061.01 98.9556 1091.41 95.1437 1118.41 84.5167C1147.11 73.1966 1171.74 53.0977 1177.34 27.8008" stroke="white" stroke-opacity="0.04" stroke-miterlimit="10"/>
<path d="M62.0916 244.731C85.3579 228.906 112.021 215.738 140.551 204.995C153.288 200.259 166.535 195.985 180.461 193.213C208.482 187.668 237.353 188.477 264.695 192.173C272.337 193.213 279.809 194.368 287.282 195.754C318.53 201.645 348.759 210.54 377.12 221.629C405.141 232.602 430.955 246.348 459.316 258.823C491.413 272.916 523.34 288.048 558.494 297.866C588.554 306.183 622.519 310.11 653.258 304.219C658.862 303.18 664.296 301.793 669.731 300.061C702.677 289.434 723.736 268.18 740.379 245.539C745.643 238.378 750.398 231.101 755.153 224.054C767.381 205.457 780.458 186.513 795.572 169.071C820.197 140.771 852.124 118.824 893.562 103.923C910.714 97.8008 930.754 92.6028 951.643 91.9098C981.362 90.9857 1008.19 96.0682 1033.84 96.9923C1035.88 97.1078 1037.91 97.1078 1039.95 97.1078C1070.52 97.5698 1099.73 92.0253 1124.7 80.3587C1151.36 67.8835 1173.27 47.5535 1177.34 23.0652" stroke="white" stroke-opacity="0.04" stroke-miterlimit="10"/>
<path d="M65.9961 253.624C88.7528 238.146 114.736 225.324 142.927 215.159C155.495 210.654 168.401 206.611 181.988 203.955C209.33 198.526 237.521 198.641 264.523 201.529C271.996 202.337 279.468 203.377 286.94 204.532C318.019 209.499 348.078 217.354 376.609 227.519C404.63 237.568 430.953 250.159 458.805 262.172C491.751 276.38 524.188 291.974 560.191 302.139C590.76 310.802 625.405 314.961 656.992 309.07C662.766 308.03 668.371 306.644 673.805 304.911C707.431 294.169 728.999 272.453 746.151 249.35C751.586 242.073 756.511 234.68 761.436 227.403C774.003 208.459 787.929 189.169 803.892 171.496C830.045 142.849 863.671 120.44 907.147 106.232C924.129 100.688 943.659 96.1827 963.699 95.3741C992.4 94.219 1018.72 97.9154 1043.69 97.5689C1045.73 97.5689 1047.59 97.4533 1049.63 97.4533C1079.52 96.2982 1107.37 89.1365 1130.47 76.4303C1155.09 62.9155 1174.28 42.3546 1176.83 18.5593" stroke="white" stroke-opacity="0.04" stroke-miterlimit="10"/>
<path d="M69.7325 262.519C91.8099 247.387 117.454 235.027 145.135 225.324C157.363 221.05 170.1 217.239 183.516 214.582C210.179 209.268 237.691 208.691 264.354 210.77C271.826 211.347 279.128 212.156 286.431 213.08C317.339 217.007 347.399 223.938 375.93 233.064C404.291 242.189 430.953 253.74 458.295 265.291C492.261 279.499 525.037 295.671 561.72 306.182C592.798 315.192 628.292 319.581 660.559 313.806C666.503 312.766 672.107 311.38 677.711 309.647C712.186 298.789 734.094 276.611 751.755 253.047C757.36 245.654 762.455 238.146 767.549 230.753C780.626 211.463 795.231 191.942 812.214 174.037C839.895 144.929 875.049 122.057 920.733 108.658C937.546 103.691 956.396 99.8793 975.757 98.9552C1003.27 97.5691 1029.25 99.8793 1053.71 98.2621C1055.57 98.1466 1057.61 98.0311 1059.48 97.8001C1088.69 95.1433 1115.18 86.3645 1136.41 72.6187C1159 58.0643 1175.47 37.2723 1176.49 14.1701" stroke="white" stroke-opacity="0.04" stroke-miterlimit="10"/>
<path d="M73.6379 271.414C95.2058 256.629 120.34 244.616 147.512 235.49C159.57 231.447 172.137 227.867 185.044 225.21C211.027 220.012 237.86 218.741 264.183 220.012C271.486 220.358 278.788 220.936 286.091 221.629C316.66 224.632 346.719 230.523 375.419 238.725C403.78 246.81 430.613 257.437 457.615 268.411C492.43 282.734 525.716 299.252 563.078 310.226C594.665 319.467 631.008 324.203 663.955 318.427C669.899 317.388 675.842 316.001 681.617 314.153C716.94 303.18 739.188 280.54 757.359 256.513C763.133 249.005 768.398 241.266 773.493 233.758C787.079 214.121 802.363 194.253 820.195 176.118C849.235 146.662 886.257 123.098 933.979 110.623C950.622 106.233 968.963 103.115 987.474 102.075C1013.97 100.458 1039.44 101.497 1063.39 98.6097C1065.25 98.3787 1067.12 98.1476 1068.99 97.8011C1097.52 93.5272 1122.83 83.1312 1142.02 68.3458C1162.57 52.6363 1176.32 31.7288 1175.81 9.31963" stroke="white" stroke-opacity="0.04" stroke-miterlimit="10"/>
<path d="M77.5452 280.423C98.4339 265.984 123.229 254.433 149.891 245.655C161.779 241.843 174.007 238.493 186.744 235.952C212.048 230.869 238.371 228.905 264.184 229.367C271.487 229.483 278.62 229.83 285.922 230.292C316.321 232.255 346.38 237.222 375.081 244.499C403.442 251.661 430.784 261.133 457.277 271.76C493.111 286.083 526.736 303.179 564.777 314.499C597.044 324.087 634.067 329.054 667.522 323.278C673.636 322.238 679.75 320.852 685.524 319.004C721.527 307.915 744.284 284.813 762.965 260.44C768.909 252.701 774.343 244.961 779.608 237.338C793.703 217.354 809.667 197.14 828.348 178.774C858.917 148.856 897.467 124.599 947.227 113.163C963.7 109.351 981.362 107.041 999.193 105.771C1024.67 103.922 1049.63 103.576 1073.07 99.4175C1074.94 99.071 1076.8 98.7245 1078.67 98.3779C1106.52 92.6024 1130.47 80.4737 1147.79 64.6487C1166.3 47.8996 1177.34 26.6456 1175.47 5.045" stroke="white" stroke-opacity="0.04" stroke-miterlimit="10"/>
<path d="M81.4506 289.318C128.832 256.628 196.763 239.533 264.184 238.609C331.605 237.684 398.347 252.008 456.937 274.763C493.789 289.087 527.924 306.76 566.645 318.427C605.365 330.093 651.218 335.291 689.939 323.509C738.339 308.839 762.964 272.8 786.23 240.341C824.441 186.975 877.597 131.876 961.322 115.243C1003.1 106.926 1048.61 109.236 1089.03 98.2626C1144.9 83.0151 1182.1 40.8536 1175.64 0.0781469" stroke="white" stroke-opacity="0.04" stroke-miterlimit="10"/>
</svg>
