<svg width="42" height="42" viewBox="0 0 42 42" fill="none" xmlns="http://www.w3.org/2000/svg">
<g clip-path="url(#clip0_2_774)">
<path d="M42 21L42 2.99994L24 2.99994L24 21L36 21C36 27.6166 30.6166 33 24 33L24 39C33.9258 39 42 30.9258 42 21ZM3.29016e-06 33L3.8147e-06 39C9.92582 39 18 30.9258 18 21L18 2.99994L6.67472e-07 2.99995L2.24108e-06 21L12 21C12 27.6166 6.61666 33 3.29016e-06 33Z" fill="#E8E8E8"/>
</g>
<defs>
<clipPath id="clip0_2_774">
<rect width="42" height="42" fill="white" transform="translate(42 42) rotate(180)"/>
</clipPath>
</defs>
</svg>
