<svg width="101" height="72" viewBox="0 0 101 72" fill="none" xmlns="http://www.w3.org/2000/svg">
<path fill-rule="evenodd" clip-rule="evenodd" d="M1.55059 1.60079C4.12268 0.460928 35.4245 -0.533817 42.9991 0.323161C54.2796 1.59941 65.3723 5.87386 72.5215 11.6993C78.209 16.3336 81.8097 22.3351 82.2971 27.9925C82.5787 31.2615 82.2785 33.0446 80.8849 36.3856L79.6816 39.2703L81.8418 41.1472C89.0107 47.3766 94.81 56.072 97.1375 64.0821C97.492 65.3024 97.8538 66.2691 97.9414 66.2304C98.0288 66.1914 98.2046 64.0616 98.3319 61.4974C98.4589 58.9332 98.7151 56.6657 98.9009 56.4586C99.5265 55.7619 100.364 56.4336 100.511 57.7498C100.788 60.2293 100.224 69.7623 99.7213 71.0974C99.3228 72.1559 98.9879 72.2267 97.3284 71.6032C96.3199 71.2242 95.2259 70.3363 92.6065 67.7702C88.3524 63.6026 87.7119 62.8318 87.9566 62.175C88.1239 61.7261 88.2899 61.7331 89.1427 62.2246C89.6884 62.5388 91.2831 63.7841 92.687 64.9919C94.0908 66.1996 95.301 67.1626 95.3762 67.1323C95.6479 67.0225 93.6647 62.0176 92.2824 59.3241C89.6807 54.2549 87.0536 50.463 83.5549 46.7269C81.6429 44.6854 78.0672 41.3529 77.9048 41.4613C77.8562 41.4938 77.2557 42.1298 76.5706 42.8751C74.211 45.4415 69.7608 48.3824 65.7731 50.0113C54.4653 54.6294 40.6197 52.6477 35.7253 45.7107C35.0953 44.8178 34.6199 43.6239 34.4279 42.4523C34.1627 40.8349 34.2235 40.3434 34.9127 38.5229C36.0581 35.4973 37.9798 33.7769 42.3805 31.837C47.3134 29.6619 52.6075 29.0247 58.7642 29.8643C62.1133 30.321 71.3776 33.7924 74.8219 35.8811C76.1094 36.6618 77.2582 37.2581 77.3752 37.2064C77.4918 37.1546 77.9755 36.2219 78.45 35.1343C79.9654 31.6594 80.0252 28.1005 78.6325 24.2909C74.715 13.5773 60.3333 4.95128 42.9703 2.90097C36.999 2.19571 5.38626 2.50208 1.98712 3.25802C0.822786 3.51702 0.359604 3.49416 0.170494 3.16814C-0.212119 2.50809 -0.0298682 2.30094 1.55059 1.60079ZM36.4898 40.7708C36.1509 44.74 40.4531 48.1352 47.5198 49.4753C53.8896 50.683 59.9155 49.8091 66.2625 46.7568C69.8039 45.0537 72.6401 43.1217 74.4613 41.1724C76.0011 39.5244 76.1691 39.7819 71.9877 37.3856C68.511 35.3931 61.5111 32.6661 58.8282 32.2587C55.6111 31.7703 52.0388 31.6927 48.9728 32.0441C44.0132 32.6129 39.0438 35.2593 37.4172 38.1978C37.0579 38.8471 36.7243 39.4347 36.6756 39.5035C36.6271 39.5724 36.5434 40.1428 36.4898 40.7708Z" fill="#1D1E26"/>
</svg>
