<svg width="26" height="26" viewBox="0 0 26 26" fill="none" xmlns="http://www.w3.org/2000/svg">
<g clip-path="url(#clip0_2_3699)">
<path d="M21.3643 9.22031C21.2104 9.09847 20.9924 9.07925 20.8193 9.16902C20.6398 9.2588 20.5307 9.43831 20.5307 9.63709V10.5027H20.2806C18.5879 10.5027 16.9529 10.9387 15.4974 11.753V6.0401H16.363C16.5618 6.0401 16.7413 5.92468 16.8311 5.75155C16.9209 5.57204 16.9016 5.36042 16.7798 5.20655L13.4136 0.782347C13.3174 0.654125 13.1635 0.577148 12.9968 0.577148C12.8301 0.577148 12.6826 0.654082 12.58 0.782347L9.21381 5.20651C9.09196 5.36037 9.07274 5.57837 9.16252 5.7515C9.25229 5.93102 9.4318 6.04006 9.63058 6.04006H10.4962V11.753C9.07921 10.9579 7.45059 10.4963 5.71298 10.4963H5.46291V9.63067C5.46291 9.43189 5.34749 9.25238 5.17436 9.1626C4.99484 9.07282 4.78322 9.09847 4.62936 9.21389L0.205199 12.5801C0.0769332 12.6763 0 12.8302 0 12.9969C0 13.1572 0.0769332 13.3111 0.205199 13.4137L4.62936 16.7799C4.78322 16.9017 5.00122 16.921 5.17436 16.8312C5.35387 16.7414 5.46291 16.5619 5.46291 16.3631V15.4975H6.08484C8.51494 15.4975 10.4962 17.4788 10.4962 19.9089V24.9037C10.4959 24.972 10.5092 25.0397 10.5352 25.1028C10.5612 25.1659 10.5994 25.2233 10.6477 25.2716C10.696 25.3199 10.7533 25.3581 10.8165 25.3841C10.8796 25.4101 10.9473 25.4233 11.0156 25.4231H14.9845C15.0528 25.4233 15.1204 25.4101 15.1836 25.3841C15.2467 25.3581 15.3041 25.3199 15.3524 25.2716C15.4006 25.2233 15.4389 25.1659 15.4649 25.1028C15.4909 25.0397 15.5041 24.972 15.5038 24.9037V19.9089C15.5038 17.4788 17.4851 15.4975 19.9152 15.4975H20.5371V16.3631C20.5371 16.5619 20.6526 16.7414 20.8257 16.8312C21.0052 16.921 21.2168 16.8953 21.3707 16.7799L25.7948 13.4137C25.9231 13.3175 26 13.1636 26 12.9969C26 12.8366 25.9231 12.6827 25.7948 12.5801L21.3643 9.22031ZM11.0027 5.00131H10.6693L12.9904 1.9557L15.3115 5.00131H14.9781C14.9098 5.00103 14.8421 5.01427 14.779 5.04027C14.7159 5.06627 14.6585 5.10451 14.6102 5.1528C14.5619 5.20108 14.5237 5.25844 14.4977 5.32158C14.4717 5.38472 14.4584 5.45238 14.4587 5.52066V15.9271C13.7662 14.5485 12.7596 13.3559 11.5285 12.4391V5.52066C11.5285 5.23215 11.2913 5.00131 11.0027 5.00131ZM14.4523 24.3907H11.5221V19.9152C11.5221 16.9081 9.07916 14.4652 6.072 14.4652H4.93067C4.86239 14.4649 4.79473 14.4781 4.73159 14.5041C4.66845 14.5301 4.61109 14.5684 4.5628 14.6167C4.51452 14.6649 4.47628 14.7223 4.45028 14.7855C4.42428 14.8486 4.41103 14.9163 4.41132 14.9845V15.318L1.36571 13.0033L4.41132 10.6822V11.0156C4.41103 11.0839 4.42428 11.1515 4.45028 11.2147C4.47628 11.2778 4.51452 11.3352 4.5628 11.3835C4.61109 11.4317 4.66845 11.47 4.73159 11.496C4.79473 11.522 4.86239 11.5352 4.93067 11.5349H5.70009C10.5282 11.5349 14.4523 15.459 14.4523 20.2871L14.4523 24.3907ZM21.5694 15.3244V14.991C21.5697 14.9227 21.5565 14.855 21.5305 14.7919C21.5045 14.7287 21.4662 14.6714 21.4179 14.6231C21.3696 14.5748 21.3123 14.5366 21.2491 14.5106C21.186 14.4846 21.1183 14.4713 21.0501 14.4716H19.9087C18.0942 14.4716 16.4912 15.3629 15.4974 16.735V12.9713C16.9208 12.0415 18.5686 11.5414 20.2806 11.5414H21.05C21.1183 11.5417 21.186 11.5285 21.2491 11.5025C21.3122 11.4765 21.3696 11.4382 21.4179 11.3899C21.4662 11.3416 21.5044 11.2843 21.5304 11.2211C21.5564 11.158 21.5697 11.0903 21.5694 11.0221V10.6886L24.615 13.0033L21.5694 15.3244Z" fill="#385182"/>
</g>
<defs>
<clipPath id="clip0_2_3699">
<rect width="26" height="26" fill="white"/>
</clipPath>
</defs>
</svg>
