<svg width="43" height="44" viewBox="0 0 43 44" fill="none" xmlns="http://www.w3.org/2000/svg">
<path fill-rule="evenodd" clip-rule="evenodd" d="M17.3278 2.40715C16.5778 2.88831 15.374 4.6963 11.5862 11.0313C6.68614 19.2268 6.17668 19.9516 4.3167 21.3707C2.58539 22.6919 1.56471 22.4879 1.77021 20.862C1.93206 19.5826 3.71142 15.3286 5.7924 11.2451C10.3497 2.30398 10.9236 0.595455 9.55561 0.0452312C8.177 -0.509517 3.71883 4.10931 0.396899 9.53465C-0.123339 10.3837 -0.129232 10.6355 0.362636 10.9195C1.00212 11.2887 0.952069 11.342 3.05194 8.05768C4.06741 6.46964 6.46109 3.57763 7.73872 2.39578C8.01063 2.14423 8.28034 2.11936 8.33791 2.34042C8.43646 2.71756 7.98561 3.70535 4.66435 10.3932C1.22037 17.3276 0.528356 19.0852 0.495663 20.9818C0.466335 22.676 0.689702 23.2633 1.44802 23.4864C2.77582 23.8778 4.23424 23.298 6.0575 21.655C7.64831 20.2209 8.34847 19.1957 12.6539 11.9961C15.3033 7.56621 17.6562 3.89016 17.8827 3.82753C18.5987 3.6289 17.3243 7.84494 15.2446 12.5552C12.0857 19.7096 11.0111 23.4157 11.8098 24.4022C12.2877 24.9928 13.7094 24.9287 14.5037 24.2804C16.0273 23.0379 19.4429 18.4175 22.0311 14.0992C23.5299 11.5983 24.8447 9.60358 24.9529 9.66607C25.1219 9.76362 23.7379 13.8293 22.3569 17.2932C21.6876 18.9711 21.4502 22.3804 21.9465 23.1803C22.196 23.5827 22.7565 24.0131 23.1919 24.1373C23.928 24.3468 23.9314 24.5173 23.2412 26.5479C22.2303 29.5223 22.1223 32.4714 22.974 33.8465C23.4253 34.575 23.598 35.5832 23.4851 36.83C23.1986 40.0007 24.4086 41.5336 26.6571 40.8489C28.0658 40.4197 29.8919 39.3029 30.59 38.443C30.846 38.1281 31.4996 37.4043 32.0428 36.835C33.4461 35.3633 36.6456 30.572 38.6811 26.8945C40.6676 23.3059 41.3737 22.4779 41.6988 23.3571C42.3754 25.1888 39.5479 31.2672 36.5479 34.4296C35.6654 35.3604 34.5578 36.6171 34.0871 37.2227C33.6164 37.8282 32.8981 38.7322 32.491 39.2311C32.0697 39.7468 31.797 40.4116 31.8582 40.7721C31.9176 41.1206 31.8609 41.3451 31.7323 41.2708C31.6039 41.1967 31.5873 41.5483 31.6953 42.0521C32.0624 43.763 34.5292 44.3139 34.8135 42.7488C34.9187 42.1694 34.088 41.6682 33.9122 42.2047C33.84 42.4255 33.514 42.5214 33.1878 42.4178C32.7655 42.2835 32.6983 42.0208 32.9545 41.5041C33.8235 39.7504 35.0452 38.0704 37.1912 35.6775C41.2707 31.1286 43.5751 25.993 42.8761 23.0078C42.613 21.886 42.3203 21.6688 41.0619 21.6626C40.313 21.6593 40.0507 22.0143 36.9146 27.2788C32.2492 35.1117 28.9067 38.9111 26.1879 39.4724L25.1667 39.683L24.9627 38.3637C24.8506 37.638 24.8948 36.5129 25.0613 35.8635C25.318 34.8607 25.5514 34.6029 26.6133 34.1509C29.2977 33.0084 32.9937 28.773 35.0255 24.511C36.5166 21.3825 36.9536 19.8092 36.7416 18.3308C36.4212 16.0959 34.913 16.1003 32.5092 18.3432C30.2491 20.4519 24.2835 30.8847 24.3352 32.6378C24.3597 33.4751 23.7729 32.5745 23.7239 31.6998C23.5649 28.8598 25.4505 23.9669 27.2101 22.6543C28.5205 21.6768 30.7186 19.0993 31.6932 17.3966C33.0836 14.9683 32.4805 13.0265 30.6272 13.9627C29.8463 14.357 29.1141 15.3079 27.1388 18.4945C24.1133 23.3746 23.0923 24.075 23.0308 21.3133C22.9986 19.8576 23.9115 16.6725 25.4434 12.8985C26.5716 10.1182 27.0504 7.66334 26.5221 7.36754C25.3328 6.70218 23.8679 8.27154 20.684 13.6224C16.5421 20.5825 11.9555 25.7384 13.0774 22.1732C13.2393 21.6595 13.4438 20.9665 13.5319 20.6333C13.6856 20.0546 13.9153 19.4256 14.7744 17.2335C14.986 16.6935 15.6255 15.2568 16.195 14.0406C18.4501 9.22773 19.9247 4.15608 19.3976 3.02424C18.8581 1.86521 18.3904 1.72557 17.3278 2.40715ZM28.7429 19.1433C27.9192 19.9375 27.9223 19.8947 28.807 18.3123C29.3201 17.3945 30.035 16.3625 30.3957 16.019C30.9357 15.5044 30.9245 15.6509 30.3316 16.85C29.9359 17.6505 29.221 18.6825 28.7429 19.1433ZM35.348 19.8955C35.1879 20.8629 34.3962 22.6119 32.9774 25.1345C30.7541 29.0868 29.3996 30.7038 26.9732 32.3028L25.6747 33.1583L25.9013 32.0853C26.026 31.4951 27.4496 28.7052 29.0648 25.8854C31.3849 21.8349 32.3243 20.4549 33.5385 19.3115C34.3838 18.5153 35.1908 17.9944 35.3321 18.1538C35.4732 18.3128 35.4804 19.0967 35.348 19.8955Z" fill="#032342" fill-opacity="0.4"/>
</svg>
