<svg width="27" height="27" viewBox="0 0 27 27" fill="none" xmlns="http://www.w3.org/2000/svg">
<path d="M13.6516 14.486C13.5631 14.4734 13.4493 14.4734 13.3482 14.486C11.1235 14.4102 9.35386 12.59 9.35386 10.3527C9.35386 8.06475 11.1994 6.20661 13.4999 6.20661C15.7878 6.20661 17.6459 8.06475 17.6459 10.3527C17.6333 12.59 15.8763 14.4102 13.6516 14.486Z" stroke="#032342" stroke-width="1.7" stroke-linecap="round" stroke-linejoin="round"/>
<path d="M22.0198 22.8288C19.7698 24.8892 16.7867 26.1406 13.5002 26.1406C10.2137 26.1406 7.23058 24.8892 4.9806 22.8288C5.107 21.6406 5.86542 20.4777 7.21794 19.5676C10.6814 17.267 16.3443 17.267 19.7825 19.5676C21.135 20.4777 21.8934 21.6406 22.0198 22.8288Z" stroke="#032342" stroke-width="1.7" stroke-linecap="round" stroke-linejoin="round"/>
<path d="M13.5 26.1404C20.4811 26.1404 26.1404 20.4811 26.1404 13.5C26.1404 6.51892 20.4811 0.859643 13.5 0.859643C6.51892 0.859643 0.859643 6.51892 0.859643 13.5C0.859643 20.4811 6.51892 26.1404 13.5 26.1404Z" stroke="#032342" stroke-width="1.7" stroke-linecap="round" stroke-linejoin="round"/>
</svg>
