<svg width="48" height="47" viewBox="0 0 48 47" fill="none" xmlns="http://www.w3.org/2000/svg">
<g clip-path="url(#clip0_2_798)">
<path d="M45.812 42.7175C47.0172 44.0459 46.1578 46.1503 44.3497 46.3021C39.1704 46.7367 32.3129 47 24.7895 47C16.4617 47 8.95014 46.6773 3.62807 46.1581C1.8419 45.9838 0.985057 43.8945 2.18647 42.5886L2.21358 42.5592C7.56172 36.741 15.3145 33.0835 23.9388 33.0835C32.4706 33.0835 40.1433 36.6585 45.4873 42.3653C45.5965 42.4818 45.7047 42.5992 45.812 42.7175Z" fill="url(#paint0_linear_2_798)"/>
<path d="M45.8118 42.7175C45.7045 42.5993 45.5963 42.4819 45.4871 42.3654C40.1432 36.6586 32.4705 33.0836 23.9386 33.0836C20.1886 33.0836 16.6035 33.7754 13.3091 35.0354C13.4545 35.6521 13.7271 36.2682 13.9387 36.8832C14.1121 37.3872 14.3496 37.8228 14.786 38.1437L23.8292 46.9985C24.1481 46.9994 24.4679 47 24.7893 47C32.3126 47 39.1702 46.7367 44.3495 46.3021C46.1576 46.1504 47.0168 44.046 45.8118 42.7175Z" fill="url(#paint1_linear_2_798)"/>
<path d="M10.8826 25.8889C9.29547 25.8889 8.00879 24.6291 8.00879 23.075V21.4016C8.00879 19.8476 9.29538 18.5877 10.8826 18.5877C12.4697 18.5877 13.7564 19.8475 13.7564 21.4016V23.0751C13.7564 24.6291 12.4697 25.8889 10.8826 25.8889Z" fill="url(#paint2_linear_2_798)"/>
<path d="M37.117 25.8889C35.5298 25.8889 34.2432 24.6291 34.2432 23.075V21.4016C34.2432 19.8476 35.5298 18.5877 37.117 18.5877C38.7041 18.5877 39.9907 19.8475 39.9907 21.4016V23.0751C39.9906 24.6291 38.7041 25.8889 37.117 25.8889Z" fill="url(#paint3_linear_2_798)"/>
<path d="M23.9999 39.4969C31.1803 39.4969 37.0872 33.9383 37.3466 26.9121C37.4579 23.8998 37.4579 20.8847 37.3466 17.8725C37.0871 10.8463 31.1803 5.28754 23.9999 5.28754C16.8196 5.28754 10.9126 10.8462 10.6533 17.8724C10.542 20.8846 10.542 23.8998 10.6533 26.912C10.9126 33.9382 16.8195 39.4969 23.9999 39.4969Z" fill="url(#paint4_linear_2_798)"/>
<path d="M19.9665 20.3533C19.9665 21.3944 19.1045 22.2384 18.0413 22.2384C16.978 22.2384 16.1162 21.3944 16.1162 20.3533C16.1162 19.3122 16.9781 18.4683 18.0413 18.4683C19.1045 18.4683 19.9665 19.3122 19.9665 20.3533Z" fill="url(#paint5_linear_2_798)"/>
<path d="M18.9026 18.6671C19.0365 18.9288 19.106 19.2176 19.1056 19.5103C19.1056 20.5514 18.2437 21.3954 17.1805 21.3954C16.871 21.3954 16.5784 21.3237 16.3193 21.1966C16.6354 21.8143 17.2878 22.2384 18.0414 22.2384C19.1047 22.2384 19.9666 21.3944 19.9666 20.3533C19.9665 19.6153 19.5334 18.9765 18.9026 18.6671Z" fill="url(#paint6_linear_2_798)"/>
<path d="M31.8835 20.3533C31.8835 21.3944 31.0215 22.2384 29.9583 22.2384C28.895 22.2384 28.0332 21.3944 28.0332 20.3533C28.0332 19.3122 28.8951 18.4683 29.9583 18.4683C31.0215 18.4683 31.8835 19.3122 31.8835 20.3533Z" fill="url(#paint7_linear_2_798)"/>
<path d="M30.8191 18.6671C30.953 18.9288 31.0225 19.2176 31.0221 19.5103C31.0221 20.5514 30.1602 21.3954 29.097 21.3954C28.7875 21.3954 28.4949 21.3237 28.2358 21.1966C28.5519 21.8143 29.2043 22.2384 29.9579 22.2384C31.0212 22.2384 31.8831 21.3944 31.8831 20.3533C31.8831 19.6153 31.45 18.9765 30.8191 18.6671Z" fill="url(#paint8_linear_2_798)"/>
<path d="M10.6905 22.2463L10.9378 18.6343C11.0701 16.7013 12.2034 14.9473 13.9033 14.0032C14.7463 13.535 15.6872 13.2892 16.6328 13.2892H23.8487C26.4705 13.2892 28.9601 12.2785 30.7432 10.506L32.4811 13.2267C32.8974 13.8784 33.4816 14.4217 34.1742 14.7994C35.5929 15.5729 36.5363 17.0307 36.6376 18.6351L36.8003 21.2104C36.8307 21.6924 37.2408 22.0848 37.7159 22.0848C38.1115 22.0848 38.4365 21.8098 38.5034 21.4196L39.6822 14.5414C40.0201 12.5699 40.1038 10.5883 39.9395 8.64065C39.6942 5.7343 36.7788 3.59829 33.8364 4.10248C30.0684 0.7676 24.9111 -0.637424 19.9488 0.270045L15.6346 1.059C11.7235 1.77423 8.72367 5.04211 8.60348 8.87446L8.47529 12.9606C8.41732 14.8096 8.50918 16.6846 8.75464 18.5682L9.25365 22.398C9.29816 22.7396 9.57487 22.985 9.9168 22.985C10.3162 22.9851 10.6626 22.6537 10.6905 22.2463Z" fill="url(#paint9_linear_2_798)"/>
<path d="M33.8364 4.10239C30.0684 0.7676 24.9111 -0.637423 19.9488 0.270046L15.6346 1.059C11.7235 1.77423 8.72367 5.04211 8.60348 8.87446L8.47529 12.9606C8.41732 14.8096 8.50918 16.6846 8.75464 18.5682L9.25365 22.398C9.29816 22.7396 9.57487 22.985 9.9168 22.985C10.3161 22.985 10.6626 22.6536 10.6904 22.2463L10.9377 18.6343C11.07 16.7013 12.2033 14.9473 13.9032 14.0032C14.7462 13.535 15.6872 13.2892 16.6328 13.2892H23.8487C26.4705 13.2892 28.9601 12.2785 30.7432 10.506C30.7432 10.506 29.6364 6.01805 33.8364 4.10239Z" fill="url(#paint10_linear_2_798)"/>
<path d="M37.3463 26.912C37.3958 25.5711 37.422 24.2296 37.4274 22.8882C36.4013 23.7857 35.0778 24.5249 33.4375 24.6634C33.4375 24.6634 34.8357 29.4816 34.3168 34.7302C36.1164 32.593 37.2367 29.8839 37.3463 26.912Z" fill="url(#paint11_linear_2_798)"/>
<path d="M14.2254 35.1839H14.2194C13.1553 35.1762 11.6415 34.6208 10.4725 32.0182C10.3909 31.8287 10.3887 31.6154 10.4664 31.4243C10.544 31.2332 10.6953 31.0797 10.8876 30.9969C11.0798 30.9141 11.2976 30.9087 11.4939 30.9818C11.6902 31.0549 11.8493 31.2007 11.9368 31.3877C12.3918 32.4007 13.1593 33.6099 14.2312 33.6177C14.3362 33.6184 14.4401 33.6394 14.5368 33.6795C14.6335 33.7195 14.7213 33.7778 14.795 33.8511C14.8687 33.9244 14.927 34.0111 14.9665 34.1064C15.0059 34.2017 15.0259 34.3037 15.0251 34.4065C15.0235 34.6132 14.9385 34.8109 14.7887 34.9565C14.6389 35.1021 14.4364 35.1838 14.2254 35.1839Z" fill="url(#paint12_linear_2_798)"/>
<path d="M14.923 25.1515H14.9198C12.6793 25.1429 10.6934 24.239 9.17656 22.5373C8.05007 21.2734 7.57797 20.0085 7.55839 19.9552C7.52286 19.8584 7.50714 19.7558 7.51214 19.653C7.51713 19.5503 7.54274 19.4495 7.58751 19.3565C7.63227 19.2635 7.69531 19.18 7.77303 19.1108C7.85075 19.0416 7.94162 18.9881 8.04047 18.9533C8.45524 18.8071 8.91265 19.0175 9.06296 19.4232C9.06691 19.4339 9.47284 20.5027 10.4168 21.5464C11.6343 22.8924 13.1514 23.5784 14.926 23.5851C15.0311 23.5855 15.135 23.6061 15.2319 23.6459C15.3287 23.6856 15.4167 23.7436 15.4907 23.8166C15.5646 23.8896 15.6232 23.9762 15.663 24.0714C15.7029 24.1665 15.7231 24.2684 15.7227 24.3713C15.7219 24.5785 15.6373 24.7769 15.4874 24.9231C15.3375 25.0693 15.1346 25.1515 14.923 25.1515Z" fill="url(#paint13_linear_2_798)"/>
<path d="M33.774 35.1839H33.78C34.8441 35.1762 36.3579 34.6208 37.5269 32.0182C37.6085 31.8287 37.6107 31.6154 37.5331 31.4243C37.4554 31.2332 37.3041 31.0797 37.1119 30.9969C36.9196 30.9141 36.7018 30.9087 36.5055 30.9818C36.3092 31.0549 36.1501 31.2007 36.0626 31.3877C35.6076 32.4007 34.8401 33.6099 33.7682 33.6177C33.5576 33.6205 33.3565 33.7047 33.2088 33.8518C33.0612 33.999 32.9787 34.1972 32.9795 34.4036C32.9803 34.6099 33.0641 34.8076 33.2129 34.9537C33.3617 35.0998 33.5633 35.1825 33.774 35.1839Z" fill="url(#paint14_linear_2_798)"/>
<path d="M33.0766 25.1515H33.0798C35.3203 25.1429 37.3062 24.239 38.823 22.5373C39.9495 21.2734 40.4216 20.0085 40.4412 19.9552C40.4767 19.8584 40.4924 19.7558 40.4875 19.653C40.4825 19.5503 40.4568 19.4495 40.4121 19.3565C40.3673 19.2635 40.3043 19.18 40.2266 19.1108C40.1488 19.0416 40.058 18.9881 39.9591 18.9533C39.5443 18.8071 39.0869 19.0175 38.9366 19.4232C38.9327 19.4339 38.5267 20.5027 37.5827 21.5464C36.3653 22.8924 34.8482 23.5784 33.0736 23.5851C32.9685 23.5855 32.8646 23.6061 32.7677 23.6459C32.6708 23.6856 32.5829 23.7436 32.5089 23.8166C32.4349 23.8896 32.3764 23.9762 32.3366 24.0714C32.2967 24.1665 32.2765 24.2684 32.2769 24.3713C32.2777 24.5785 32.3623 24.7769 32.5121 24.9231C32.662 25.0693 32.865 25.1515 33.0766 25.1515Z" fill="url(#paint15_linear_2_798)"/>
<path d="M24.8235 30.5969H23.1765C21.8567 30.5969 20.8283 29.4759 20.9695 28.1911L21.8306 20.3533H26.1692L27.0303 28.1911C27.1716 29.4759 26.1434 30.5969 24.8235 30.5969Z" fill="url(#paint16_linear_2_798)"/>
<path d="M34.1548 25.0558C33.8494 24.1682 33.0539 23.4915 32.0581 23.2828C26.7063 22.1617 21.2929 22.1617 15.9412 23.2828C14.9454 23.4915 14.1499 24.1682 13.8445 25.0558C12.4925 28.9847 12.4927 32.9547 13.8445 36.8832C14.1499 37.7707 14.9454 38.4474 15.9412 38.6561C21.2929 39.7773 26.7062 39.7773 32.0581 38.6561C33.0539 38.4474 33.8494 37.7707 34.1548 36.8833C35.5066 32.9546 35.5068 28.9847 34.1548 25.0558Z" fill="url(#paint17_linear_2_798)"/>
<path d="M34.1548 25.0558C33.8494 24.1682 33.0539 23.4915 32.0581 23.2828C26.7063 22.1617 21.2929 22.1617 15.9412 23.2828C14.9454 23.4915 14.1499 24.1682 13.8445 25.0558C12.4925 28.9847 12.4927 32.9547 13.8445 36.8832C14.1499 37.7707 14.9454 38.4474 15.9412 38.6561C21.2929 39.7773 26.7062 39.7773 32.0581 38.6561C33.0539 38.4474 33.8494 37.7707 34.1548 36.8833C35.5066 32.9546 35.5068 28.9847 34.1548 25.0558Z" fill="url(#paint18_linear_2_798)"/>
<path d="M14.3108 25.1636C20.7454 23.8155 27.2544 23.8155 33.6891 25.1636C33.8522 25.1978 34.0107 25.2425 34.1639 25.2967C34.2993 25.3448 34.4321 25.2186 34.3862 25.0849L34.385 25.0813C34.0726 24.1736 33.2591 23.4816 32.2408 23.2683C26.7679 22.1218 21.2319 22.1218 15.7592 23.2683C14.7408 23.4816 13.9274 24.1736 13.615 25.0813L13.6138 25.0849C13.5678 25.2186 13.7006 25.3448 13.8361 25.2967C13.991 25.2418 14.1496 25.1973 14.3108 25.1636Z" fill="url(#paint19_linear_2_798)"/>
<path d="M13.3604 35.2438C13.4974 35.7968 13.6589 36.3438 13.8445 36.8832C14.1499 37.7707 14.9454 38.4474 15.9412 38.6561C21.2929 39.7772 26.7062 39.7772 32.058 38.6561C33.0539 38.4474 33.8494 37.7707 34.1548 36.8832C34.3404 36.3439 34.5019 35.7969 34.6389 35.2439H13.3604V35.2438Z" fill="url(#paint20_linear_2_798)"/>
<path d="M32.0584 38.656C33.0543 38.4473 33.8498 37.7706 34.1552 36.8831C35.2128 33.8097 35.4429 30.711 34.8457 27.6264C27.6411 26.168 20.3589 26.168 13.1543 27.6264C12.5571 30.711 12.7874 33.8098 13.8449 36.8831C14.1503 37.7707 14.9458 38.4474 15.9416 38.6561C21.2933 39.7772 26.7067 39.7771 32.0584 38.656Z" fill="url(#paint21_linear_2_798)"/>
<path d="M32.0582 38.656C33.0541 38.4473 33.8496 37.7706 34.155 36.8832C34.7867 35.0473 35.123 33.2025 35.1642 31.357C27.7494 29.8111 20.25 29.8112 12.8354 31.357C12.8768 33.2025 13.213 35.0473 13.8448 36.8832C14.1502 37.7707 14.9457 38.4474 15.9415 38.6561C21.2931 39.7772 26.7065 39.7772 32.0582 38.656Z" fill="url(#paint22_linear_2_798)"/>
<path d="M32.0583 38.656C33.0541 38.4473 33.8496 37.7706 34.155 36.8832C34.3449 36.3319 34.5097 35.7726 34.6488 35.2069C27.5739 33.8011 20.4258 33.8011 13.3511 35.2069C13.4902 35.7726 13.6549 36.3319 13.8448 36.8832C14.1502 37.7707 14.9457 38.4474 15.9416 38.6561C21.2932 39.7772 26.7066 39.7772 32.0583 38.656Z" fill="url(#paint23_linear_2_798)"/>
</g>
<defs>
<linearGradient id="paint0_linear_2_798" x1="23.9998" y1="39.8858" x2="23.9998" y2="47.2494" gradientUnits="userSpaceOnUse">
<stop stop-color="#FF637B"/>
<stop offset="1" stop-color="#E63950"/>
</linearGradient>
<linearGradient id="paint1_linear_2_798" x1="32.5169" y1="45.3365" x2="26.334" y2="31.6096" gradientUnits="userSpaceOnUse">
<stop stop-color="#E63950" stop-opacity="0"/>
<stop offset="0.047" stop-color="#E4354B" stop-opacity="0.047"/>
<stop offset="0.467" stop-color="#D31822" stop-opacity="0.467"/>
<stop offset="0.799" stop-color="#C90709" stop-opacity="0.799"/>
<stop offset="1" stop-color="#C50000"/>
</linearGradient>
<linearGradient id="paint2_linear_2_798" x1="10.1986" y1="21.5686" x2="12.8755" y2="24.3025" gradientUnits="userSpaceOnUse">
<stop stop-color="#FCE9CB"/>
<stop offset="1" stop-color="#FFBD95"/>
</linearGradient>
<linearGradient id="paint3_linear_2_798" x1="36.4329" y1="21.5686" x2="39.1098" y2="24.3025" gradientUnits="userSpaceOnUse">
<stop stop-color="#FCE9CB"/>
<stop offset="1" stop-color="#FFBD95"/>
</linearGradient>
<linearGradient id="paint4_linear_2_798" x1="17.5381" y1="12.3996" x2="28.79" y2="30.548" gradientUnits="userSpaceOnUse">
<stop stop-color="#FCE9CB"/>
<stop offset="1" stop-color="#FFBD95"/>
</linearGradient>
<linearGradient id="paint5_linear_2_798" x1="17.3211" y1="19.648" x2="19.762" y2="22.1408" gradientUnits="userSpaceOnUse">
<stop stop-color="#8A7889"/>
<stop offset="1" stop-color="#6E566E"/>
</linearGradient>
<linearGradient id="paint6_linear_2_798" x1="18.1082" y1="21.0758" x2="20.669" y2="16.2117" gradientUnits="userSpaceOnUse">
<stop stop-color="#6E566E" stop-opacity="0"/>
<stop offset="0.047" stop-color="#6E566E" stop-opacity="0.047"/>
<stop offset="1" stop-color="#6E566E"/>
</linearGradient>
<linearGradient id="paint7_linear_2_798" x1="29.238" y1="19.648" x2="31.6789" y2="22.1408" gradientUnits="userSpaceOnUse">
<stop stop-color="#8A7889"/>
<stop offset="1" stop-color="#6E566E"/>
</linearGradient>
<linearGradient id="paint8_linear_2_798" x1="30.0248" y1="21.0758" x2="32.5856" y2="16.2117" gradientUnits="userSpaceOnUse">
<stop stop-color="#6E566E" stop-opacity="0"/>
<stop offset="0.047" stop-color="#6E566E" stop-opacity="0.047"/>
<stop offset="1" stop-color="#6E566E"/>
</linearGradient>
<linearGradient id="paint9_linear_2_798" x1="20.5056" y1="11.2989" x2="30.7187" y2="20.1781" gradientUnits="userSpaceOnUse">
<stop stop-color="#8A7889"/>
<stop offset="1" stop-color="#6E566E"/>
</linearGradient>
<linearGradient id="paint10_linear_2_798" x1="17.8972" y1="7.26051" x2="23.788" y2="17.4458" gradientUnits="userSpaceOnUse">
<stop stop-color="#6E566E" stop-opacity="0"/>
<stop offset="0.294" stop-color="#674D66" stop-opacity="0.294"/>
<stop offset="1" stop-color="#593B56"/>
</linearGradient>
<linearGradient id="paint11_linear_2_798" x1="35.9716" y1="28.838" x2="32.4645" y2="27.7797" gradientUnits="userSpaceOnUse">
<stop stop-color="#FAA68E" stop-opacity="0"/>
<stop offset="1" stop-color="#C9766E"/>
</linearGradient>
<linearGradient id="paint12_linear_2_798" x1="13.128" y1="32.3178" x2="12.0827" y2="34.2551" gradientUnits="userSpaceOnUse">
<stop stop-color="#EDF5FF"/>
<stop offset="1" stop-color="#D5E8FE"/>
</linearGradient>
<linearGradient id="paint13_linear_2_798" x1="11.181" y1="22.5669" x2="10.129" y2="23.9198" gradientUnits="userSpaceOnUse">
<stop stop-color="#EDF5FF"/>
<stop offset="1" stop-color="#D5E8FE"/>
</linearGradient>
<linearGradient id="paint14_linear_2_798" x1="34.8714" y1="32.3178" x2="35.9166" y2="34.2551" gradientUnits="userSpaceOnUse">
<stop stop-color="#EDF5FF"/>
<stop offset="1" stop-color="#D5E8FE"/>
</linearGradient>
<linearGradient id="paint15_linear_2_798" x1="36.8186" y1="22.5669" x2="37.8707" y2="23.9198" gradientUnits="userSpaceOnUse">
<stop stop-color="#EDF5FF"/>
<stop offset="1" stop-color="#D5E8FE"/>
</linearGradient>
<linearGradient id="paint16_linear_2_798" x1="24" y1="22.1107" x2="24" y2="41.7836" gradientUnits="userSpaceOnUse">
<stop stop-color="#FAA68E" stop-opacity="0"/>
<stop offset="1" stop-color="#C9766E"/>
</linearGradient>
<linearGradient id="paint17_linear_2_798" x1="21.8445" y1="27.1834" x2="25.3196" y2="33.5508" gradientUnits="userSpaceOnUse">
<stop stop-color="#9AE1D3"/>
<stop offset="1" stop-color="#80D1C1"/>
</linearGradient>
<linearGradient id="paint18_linear_2_798" x1="23.9997" y1="25.8013" x2="23.9997" y2="23.2172" gradientUnits="userSpaceOnUse">
<stop stop-color="#0B799D" stop-opacity="0"/>
<stop offset="0.174" stop-color="#117D9E" stop-opacity="0.174"/>
<stop offset="0.414" stop-color="#2389A0" stop-opacity="0.414"/>
<stop offset="0.693" stop-color="#409CA3" stop-opacity="0.693"/>
<stop offset="0.999" stop-color="#69B7A8" stop-opacity="0.999"/>
<stop offset="1" stop-color="#69B7A8"/>
</linearGradient>
<linearGradient id="paint19_linear_2_798" x1="23.9999" y1="22.5453" x2="23.9999" y2="24.254" gradientUnits="userSpaceOnUse">
<stop stop-color="#EDF5FF"/>
<stop offset="1" stop-color="#D5E8FE"/>
</linearGradient>
<linearGradient id="paint20_linear_2_798" x1="23.9996" y1="37.1042" x2="23.9996" y2="40.1522" gradientUnits="userSpaceOnUse">
<stop stop-color="#0B799D" stop-opacity="0"/>
<stop offset="0.174" stop-color="#117D9E" stop-opacity="0.174"/>
<stop offset="0.414" stop-color="#2389A0" stop-opacity="0.414"/>
<stop offset="0.693" stop-color="#409CA3" stop-opacity="0.693"/>
<stop offset="0.999" stop-color="#69B7A8" stop-opacity="0.999"/>
<stop offset="1" stop-color="#69B7A8"/>
</linearGradient>
<linearGradient id="paint21_linear_2_798" x1="24.0001" y1="29.74" x2="24.0001" y2="22.5931" gradientUnits="userSpaceOnUse">
<stop stop-color="#0B799D" stop-opacity="0"/>
<stop offset="0.174" stop-color="#117D9E" stop-opacity="0.174"/>
<stop offset="0.414" stop-color="#2389A0" stop-opacity="0.414"/>
<stop offset="0.693" stop-color="#409CA3" stop-opacity="0.693"/>
<stop offset="0.999" stop-color="#69B7A8" stop-opacity="0.999"/>
<stop offset="1" stop-color="#69B7A8"/>
</linearGradient>
<linearGradient id="paint22_linear_2_798" x1="23.9999" y1="32.4983" x2="23.9999" y2="27.3719" gradientUnits="userSpaceOnUse">
<stop stop-color="#0B799D" stop-opacity="0"/>
<stop offset="0.174" stop-color="#117D9E" stop-opacity="0.174"/>
<stop offset="0.414" stop-color="#2389A0" stop-opacity="0.414"/>
<stop offset="0.693" stop-color="#409CA3" stop-opacity="0.693"/>
<stop offset="0.999" stop-color="#69B7A8" stop-opacity="0.999"/>
<stop offset="1" stop-color="#69B7A8"/>
</linearGradient>
<linearGradient id="paint23_linear_2_798" x1="23.9999" y1="35.4748" x2="23.9999" y2="32.5287" gradientUnits="userSpaceOnUse">
<stop stop-color="#0B799D" stop-opacity="0"/>
<stop offset="0.174" stop-color="#117D9E" stop-opacity="0.174"/>
<stop offset="0.414" stop-color="#2389A0" stop-opacity="0.414"/>
<stop offset="0.693" stop-color="#409CA3" stop-opacity="0.693"/>
<stop offset="0.999" stop-color="#69B7A8" stop-opacity="0.999"/>
<stop offset="1" stop-color="#69B7A8"/>
</linearGradient>
<clipPath id="clip0_2_798">
<rect width="48" height="47" fill="white"/>
</clipPath>
</defs>
</svg>
