<svg width="51" height="51" viewBox="0 0 51 51" fill="none" xmlns="http://www.w3.org/2000/svg">
<path d="M33.7608 24.5511L32.1372 25.425L33.7553 26.3092L49.6198 34.9779L46.2658 40.753L30.0805 31.5359L28.5725 30.6771L28.5857 32.4124L28.7189 50H22.2811L22.4143 32.4124L22.4275 30.6771L20.9195 31.5359L4.73418 40.753L1.38204 34.981L17.3825 26.3108L19.0173 25.425L17.377 24.5494L1.37819 16.0096L4.74092 10.1142L20.9195 19.3274L22.4276 20.1862L22.4143 18.4508L22.2811 1H28.7189L28.5857 18.4508L28.5724 20.1862L30.0805 19.3274L46.2591 10.1142L49.6236 16.0127L33.7608 24.5511Z" stroke="#888888" stroke-opacity="0.13" stroke-width="2"/>
</svg>
