<svg width="149" height="24" viewBox="0 0 149 24" fill="none" xmlns="http://www.w3.org/2000/svg">
<path d="M13.7299 3.51001L15.4899 7.03001C15.7299 7.52001 16.3699 7.99001 16.9099 8.08001L20.0999 8.61001C22.1399 8.95001 22.6199 10.43 21.1499 11.89L18.6699 14.37C18.2499 14.79 18.0199 15.6 18.1499 16.18L18.8599 19.25C19.4199 21.68 18.1299 22.62 15.9799 21.35L12.9899 19.58C12.4499 19.26 11.5599 19.26 11.0099 19.58L8.01991 21.35C5.87991 22.62 4.57991 21.67 5.13991 19.25L5.84991 16.18C5.97991 15.6 5.74991 14.79 5.32991 14.37L2.84991 11.89C1.38991 10.43 1.85991 8.95001 3.89991 8.61001L7.08991 8.08001C7.61991 7.99001 8.25991 7.52001 8.49991 7.03001L10.2599 3.51001C11.2199 1.60001 12.7799 1.60001 13.7299 3.51001Z" fill="#FEC107"/>
<path d="M44.9301 3.51001L46.6901 7.03001C46.9301 7.52001 47.5701 7.99001 48.1101 8.08001L51.3001 8.61001C53.3401 8.95001 53.8201 10.43 52.3501 11.89L49.8701 14.37C49.4501 14.79 49.2201 15.6 49.3501 16.18L50.0601 19.25C50.6201 21.68 49.3301 22.62 47.1801 21.35L44.1901 19.58C43.6501 19.26 42.7601 19.26 42.2101 19.58L39.2201 21.35C37.0801 22.62 35.7801 21.67 36.3401 19.25L37.0501 16.18C37.1801 15.6 36.9501 14.79 36.5301 14.37L34.0501 11.89C32.5901 10.43 33.0601 8.95001 35.1001 8.61001L38.2901 8.08001C38.8201 7.99001 39.4601 7.52001 39.7001 7.03001L41.4601 3.51001C42.4201 1.60001 43.9801 1.60001 44.9301 3.51001Z" fill="#FEC107"/>
<path d="M76.1303 3.51001L77.8903 7.03001C78.1303 7.52001 78.7703 7.99001 79.3103 8.08001L82.5003 8.61001C84.5403 8.95001 85.0203 10.43 83.5503 11.89L81.0703 14.37C80.6503 14.79 80.4203 15.6 80.5503 16.18L81.2603 19.25C81.8203 21.68 80.5303 22.62 78.3803 21.35L75.3903 19.58C74.8503 19.26 73.9603 19.26 73.4103 19.58L70.4203 21.35C68.2803 22.62 66.9803 21.67 67.5403 19.25L68.2503 16.18C68.3803 15.6 68.1503 14.79 67.7303 14.37L65.2503 11.89C63.7903 10.43 64.2603 8.95001 66.3003 8.61001L69.4903 8.08001C70.0203 7.99001 70.6603 7.52001 70.9003 7.03001L72.6603 3.51001C73.6203 1.60001 75.1803 1.60001 76.1303 3.51001Z" fill="#FEC107"/>
<path d="M107.33 3.51001L109.09 7.03001C109.33 7.52001 109.97 7.99001 110.51 8.08001L113.7 8.61001C115.74 8.95001 116.22 10.43 114.75 11.89L112.27 14.37C111.85 14.79 111.62 15.6 111.75 16.18L112.46 19.25C113.02 21.68 111.73 22.62 109.58 21.35L106.59 19.58C106.05 19.26 105.16 19.26 104.61 19.58L101.62 21.35C99.4795 22.62 98.1795 21.67 98.7395 19.25L99.4495 16.18C99.5795 15.6 99.3495 14.79 98.9295 14.37L96.4495 11.89C94.9895 10.43 95.4595 8.95001 97.4995 8.61001L100.69 8.08001C101.22 7.99001 101.86 7.52001 102.1 7.03001L103.86 3.51001C104.82 1.60001 106.38 1.60001 107.33 3.51001Z" fill="#FEC107"/>
<path d="M138.53 3.51001L140.29 7.03001C140.53 7.52001 141.17 7.99001 141.71 8.08001L144.9 8.61001C146.94 8.95001 147.42 10.43 145.95 11.89L143.47 14.37C143.05 14.79 142.82 15.6 142.95 16.18L143.66 19.25C144.22 21.68 142.93 22.62 140.78 21.35L137.79 19.58C137.25 19.26 136.36 19.26 135.81 19.58L132.82 21.35C130.68 22.62 129.38 21.67 129.94 19.25L130.65 16.18C130.78 15.6 130.55 14.79 130.13 14.37L127.65 11.89C126.19 10.43 126.66 8.95001 128.7 8.61001L131.89 8.08001C132.42 7.99001 133.06 7.52001 133.3 7.03001L135.06 3.51001C136.02 1.60001 137.58 1.60001 138.53 3.51001Z" fill="#FEC107"/>
</svg>
