<svg width="434" height="158" viewBox="0 0 434 158" fill="none" xmlns="http://www.w3.org/2000/svg">
<path d="M0.323427 48.545C12.2717 38.4303 24.9044 28.9752 38.0972 20.2348C43.9469 16.3318 50.1077 12.5388 57.202 10.7797C75.311 6.32703 93.7312 16.4967 107.546 27.6559C120.304 37.9905 131.629 49.6444 141.275 62.2878C150.859 74.8762 158.886 88.619 171.519 98.8437C184.152 109.123 203.07 115.225 218.627 108.848C227.9 105.055 234.558 97.4144 238.23 89.0038C241.902 80.5932 242.835 71.468 243.084 62.4527C243.333 52.1181 242.835 41.2888 248.374 32.2185C254.161 22.8184 266.483 16.9365 278.493 17.7611C295.606 18.9155 308.239 31.6688 320.747 42.1133C336.616 55.3614 355.908 66.4656 377.626 68.8294C399.282 71.1931 423.365 63.1124 433.571 46.0713" stroke="white" stroke-opacity="0.04" stroke-miterlimit="10"/>
<path d="M1.75491 52.7779C13.4542 42.8281 25.9003 33.5929 38.9687 25.0723C44.7561 21.2793 50.8546 17.5413 57.7622 15.8372C71.7018 12.374 85.8903 17.5963 98.0252 25.1823C101.323 27.2712 104.497 29.47 107.422 31.7788C120.117 41.6187 131.443 52.8328 141.089 65.0364C150.672 77.1301 158.762 90.4881 171.27 100.438C178.302 105.99 187.077 110.443 196.162 112.477C204.128 114.236 212.405 114.126 219.872 111.157C221.241 110.608 222.486 110.003 223.731 109.343C231.385 105.165 236.923 98.2391 240.222 90.818C241.279 88.3992 242.151 85.9805 242.897 83.5068C244.764 77.0202 245.573 70.3137 246.071 63.6622C246.88 53.1627 247.254 42.3333 253.29 33.373C259.264 24.4677 271.088 18.6957 282.849 19.4653C299.589 20.5097 312.035 32.6034 324.357 42.4433C325.353 43.2129 326.286 43.9824 327.282 44.752C342.279 56.1861 360.077 65.3113 379.742 67.0154C400.651 68.8844 423.739 60.6937 433.385 43.9825" stroke="white" stroke-opacity="0.04" stroke-miterlimit="10"/>
<path d="M3.18639 57.0108C14.699 47.2259 26.9584 38.1556 39.8401 29.855C45.5652 26.1719 51.5394 22.5438 58.3847 20.8947C72.0754 17.4864 86.015 22.3789 98.0254 29.5801C101.261 31.5591 104.435 33.648 107.36 35.8468C119.931 45.2469 131.256 55.9663 141.027 67.7302C150.672 79.3841 158.824 92.3023 171.208 101.922C178.489 107.584 187.513 112.202 196.847 114.401C204.999 116.325 213.525 116.325 221.304 113.356C222.673 112.807 224.042 112.202 225.286 111.542C233.19 107.309 238.915 100.163 242.4 92.5222C243.52 90.0485 244.453 87.5748 245.262 84.9911C247.316 78.3396 248.374 71.4682 249.183 64.7617C250.552 54.0423 251.859 43.3229 258.331 34.4176C264.492 26.007 275.88 20.3999 287.33 21.0596C303.697 22.049 315.956 33.4831 328.091 42.6633C329.024 43.3779 330.02 44.0925 331.016 44.8071C345.764 55.4716 363.064 63.8272 382.045 65.0915C402.207 66.4658 424.299 58.1652 433.385 41.7837" stroke="white" stroke-opacity="0.04" stroke-miterlimit="10"/>
<path d="M4.6169 61.2435C15.8806 51.6235 28.0155 42.7732 40.7105 34.6924C46.3735 31.1193 52.2853 27.6011 58.944 25.952C72.3857 22.5987 86.1386 27.1613 97.9624 33.9778C101.198 35.8468 104.31 37.8257 107.173 39.9147C119.681 48.82 131.007 59.0996 140.777 70.3687C150.485 81.5829 158.637 94.0613 170.959 103.406C178.551 109.178 187.761 113.961 197.406 116.325C205.745 118.359 214.582 118.524 222.61 115.61C224.041 115.06 225.41 114.456 226.779 113.796C234.994 109.508 240.843 102.142 244.515 94.2812C245.697 91.7525 246.693 89.1689 247.502 86.5852C249.68 79.7688 251.049 72.7325 252.231 65.9161C254.098 55.0318 256.339 44.3124 263.308 35.517C269.594 27.5461 280.546 22.104 291.748 22.7087C307.741 23.5882 319.814 34.3626 331.7 42.9381C332.633 43.5977 333.566 44.2574 334.562 44.917C349.062 54.8668 365.926 62.3979 384.16 63.1675C403.576 63.9921 424.672 55.6364 433.197 39.5848" stroke="white" stroke-opacity="0.04" stroke-miterlimit="10"/>
<path d="M5.98682 65.5313C17.0638 56.0763 28.9498 47.3908 41.5203 39.5849C47.0588 36.1217 52.9085 32.7135 59.5049 31.1193C72.6977 27.8211 86.2017 32.0538 97.901 38.4855C101.075 40.2446 104.186 42.1136 107.049 44.0926C119.495 52.5581 130.759 62.343 140.591 73.1723C150.299 83.8917 158.576 95.9854 170.773 105.001C178.676 110.828 188.073 115.83 197.967 118.359C206.493 120.558 215.641 120.832 223.917 117.919C225.411 117.424 226.842 116.765 228.211 116.05C236.737 111.707 242.711 104.121 246.569 96.0404C247.814 93.4567 248.872 90.8181 249.743 88.1245C252.108 81.1432 253.726 73.9969 255.219 67.0156C257.646 55.9114 260.696 45.3019 268.163 36.5615C274.573 29.0304 285.152 23.7532 296.105 24.3029C311.662 25.0725 323.61 35.2422 335.31 43.158C336.243 43.7627 337.177 44.4224 338.11 45.0271C352.361 54.2073 368.727 60.9687 386.276 61.2436C404.945 61.5734 425.046 53.0529 433.074 37.3861" stroke="white" stroke-opacity="0.04" stroke-miterlimit="10"/>
<path d="M7.41733 69.7639C18.3076 60.4738 30.0069 52.0082 42.3908 44.4222C47.867 41.0689 53.6545 37.7707 60.0642 36.1765C73.0081 32.9332 86.2632 36.8362 97.838 42.883C101.012 44.5321 104.061 46.3462 106.924 48.1602C119.245 56.1311 130.509 65.4762 140.404 75.8657C150.174 86.1454 158.513 97.7993 170.585 106.54C178.8 112.477 188.383 117.589 198.527 120.338C207.301 122.701 216.636 123.086 225.161 120.173C226.717 119.678 228.148 119.018 229.58 118.304C238.416 113.906 244.515 106.1 248.56 97.7993C249.867 95.1607 250.987 92.4121 251.92 89.7185C254.472 82.6272 256.339 75.2611 258.143 68.2247C261.13 56.9556 265.051 46.4012 273.016 37.7157C279.551 30.6794 289.694 25.5121 300.398 26.0068C315.582 26.6665 327.344 36.1765 338.856 43.4877C339.79 44.0924 340.661 44.6421 341.594 45.1918C355.596 53.6024 371.465 59.5943 388.329 59.4293C406.252 59.2095 425.356 50.6339 432.824 35.242" stroke="white" stroke-opacity="0.04" stroke-miterlimit="10"/>
<path d="M8.84978 73.9968C19.4912 64.8716 31.066 56.5709 43.2632 49.2048C48.6772 45.9065 54.3402 42.7731 60.6877 41.179C73.3827 37.9906 86.3888 41.5638 97.8392 47.2258C100.951 48.765 104 50.4691 106.863 52.1732C119.122 59.7043 130.386 68.5546 140.28 78.4495C150.113 88.2893 158.514 99.4485 170.462 107.914C178.988 113.961 188.82 119.238 199.15 122.152C208.111 124.625 217.757 125.175 226.532 122.262C228.087 121.767 229.643 121.107 231.137 120.393C240.222 115.94 246.507 107.914 250.739 99.3935C252.108 96.645 253.291 93.8964 254.286 91.0929C257.024 83.8367 259.14 76.3056 261.318 69.1593C264.803 57.6703 269.533 47.2258 278.12 38.6503C284.717 31.9988 294.549 27.0513 304.942 27.4911C319.753 28.0408 331.327 36.8912 342.653 43.5977C343.525 44.1474 344.458 44.6421 345.329 45.1369C359.082 52.8329 374.515 58.0002 390.633 57.3405C407.809 56.6259 425.918 47.9404 432.825 32.8783" stroke="white" stroke-opacity="0.04" stroke-miterlimit="10"/>
<path d="M10.2803 78.2299C20.735 69.2696 32.0609 61.1888 44.1336 54.0426C49.4854 50.8542 55.0239 47.8308 61.2469 46.2916C73.7552 43.1583 86.4502 46.4565 97.7761 51.6788C100.888 53.1081 103.875 54.7022 106.737 56.2964C118.934 63.3327 130.136 71.7433 140.093 81.1984C149.925 90.5435 158.451 101.318 170.275 109.509C179.111 115.61 189.13 121.108 199.772 124.186C208.92 126.825 218.876 127.484 227.9 124.626C229.518 124.131 231.136 123.471 232.629 122.757C242.026 118.249 248.436 110.058 252.916 101.263C254.348 98.4593 255.53 95.6008 256.65 92.7973C259.575 85.3762 261.94 77.7352 264.429 70.424C268.474 58.7151 274.012 48.3805 283.16 39.86C289.757 33.6482 299.278 28.9207 309.422 29.1956C323.797 29.6353 335.247 37.881 346.386 43.9279C347.258 44.4226 348.129 44.8624 349.062 45.3571C362.566 52.2835 377.502 56.7362 392.935 55.5268C409.363 54.2625 426.477 45.522 432.824 30.7897" stroke="white" stroke-opacity="0.04" stroke-miterlimit="10"/>
<path d="M11.6492 82.5174C21.9172 73.722 33.0565 65.8061 44.9425 58.8797C50.232 55.8013 55.7083 52.8878 61.8069 51.3487C74.0663 48.2703 86.5123 51.2387 97.7138 56.0762C100.763 57.3955 103.75 58.8797 106.55 60.4189C118.685 67.0155 129.887 74.9313 139.844 83.8916C149.738 92.797 158.326 103.077 170.025 110.992C179.173 117.204 189.379 122.811 200.269 126.11C209.666 128.913 219.872 129.683 229.144 126.824C230.824 126.329 232.442 125.67 233.998 124.955C243.706 120.393 250.24 111.982 254.908 102.967C256.401 100.108 257.646 97.1947 258.828 94.2812C261.877 86.6952 264.553 78.8893 267.416 71.5231C272.021 59.6493 278.306 49.3697 288.014 40.9041C294.673 35.1321 303.883 30.5695 313.715 30.7894C327.717 31.1192 338.981 38.7053 349.871 44.2024C350.742 44.6422 351.614 45.027 352.485 45.4667C365.74 51.6785 380.177 55.3066 394.926 53.6574C410.608 51.8984 426.663 42.993 432.513 28.6455" stroke="white" stroke-opacity="0.04" stroke-miterlimit="10"/>
<path d="M13.0807 86.7502C23.0998 78.1197 34.1146 70.4238 45.8139 63.7173C50.979 60.7488 56.393 57.9453 62.3671 56.4061C74.3776 53.3827 86.5747 56.0213 97.6517 60.474C100.701 61.6833 103.626 63.0576 106.426 64.4869C118.437 70.5887 129.638 78.0648 139.719 86.5853C149.676 95.0509 158.389 104.891 169.901 112.532C179.36 118.798 189.753 124.625 200.892 128.089C210.475 131.002 220.93 131.937 230.514 129.078C232.256 128.583 233.936 127.924 235.554 127.154C245.511 122.537 252.232 113.906 257.086 104.671C258.642 101.757 259.948 98.734 261.193 95.8205C264.429 88.0695 267.354 80.0987 270.528 72.6226C275.693 60.5289 282.725 50.3043 293.055 41.9487C299.651 36.5615 308.613 32.2187 318.196 32.3837C331.825 32.6585 342.902 39.5849 353.605 44.4224C354.476 44.8072 355.285 45.192 356.157 45.5218C369.163 50.9639 383.165 53.8224 397.166 51.6786C412.102 49.3698 427.161 40.4095 432.513 26.3918" stroke="white" stroke-opacity="0.04" stroke-miterlimit="10"/>
<path d="M14.5112 90.9828C24.3436 82.5173 35.1717 75.0412 46.6843 68.5546C51.7872 65.6961 57.139 63.0025 62.9887 61.5183C74.7502 58.5498 86.7606 60.8586 97.651 64.9265C100.638 66.0259 103.563 67.2902 106.363 68.6096C118.311 74.2716 129.451 81.2529 139.594 89.3337C149.551 97.3045 158.388 106.705 169.776 114.071C179.546 120.392 190.125 126.439 201.576 130.067C211.346 133.146 222.112 134.19 231.882 131.332C233.624 130.837 235.367 130.177 237.047 129.408C247.315 124.735 254.16 115.885 259.201 106.43C260.757 103.461 262.188 100.383 263.495 97.3595C266.918 89.4437 270.091 81.3629 273.638 73.7219C279.364 61.4633 287.142 51.2936 298.095 42.9929C304.691 37.9906 313.404 33.8677 322.676 33.9777C335.931 34.1426 346.821 40.4093 357.338 44.6421C358.147 44.9719 359.018 45.3017 359.827 45.6316C372.585 50.3041 386.089 52.393 399.406 49.7544C413.657 46.9509 427.658 37.8806 432.45 24.1928" stroke="white" stroke-opacity="0.04" stroke-miterlimit="10"/>
<path d="M15.8811 95.2157C25.4646 86.9151 36.106 79.6039 47.4942 73.3921C52.5348 70.6436 57.7622 68.0599 63.4874 66.5757C75 63.6622 86.7615 65.6412 97.5274 69.3243C100.514 70.3137 103.377 71.4681 106.177 72.6775C118.063 77.8448 129.203 84.3864 139.346 91.9724C149.365 99.5035 158.264 108.409 169.528 115.555C179.609 121.987 190.437 128.198 202.074 131.991C212.031 135.235 223.108 136.389 233.127 133.586C234.932 133.091 236.737 132.431 238.417 131.662C248.996 126.934 255.966 117.864 261.193 108.189C262.811 105.111 264.305 102.032 265.674 98.9538C269.283 90.873 272.706 82.6273 276.564 74.8764C282.787 62.3979 291.313 52.2282 302.95 44.0925C309.546 39.4749 317.947 35.6269 326.971 35.6269C339.79 35.6819 350.556 41.3439 360.886 44.917C361.695 45.1919 362.504 45.4667 363.375 45.7416C375.821 49.6995 388.89 50.9639 401.523 47.8305C415.027 44.5322 428.033 35.352 432.264 21.994" stroke="white" stroke-opacity="0.04" stroke-miterlimit="10"/>
<path d="M17.3126 99.5035C26.7094 91.3678 37.1641 84.2765 48.3656 78.2846C53.344 75.646 58.5091 73.1723 64.1098 71.7431C75.3735 68.8846 86.8861 70.5887 97.5275 73.832C100.452 74.7665 103.315 75.756 106.115 76.8554C117.877 81.5279 129.016 87.6298 139.222 94.776C149.303 101.867 158.327 110.278 169.341 117.204C179.734 123.691 190.749 130.068 202.635 134.08C212.84 137.434 224.166 138.753 234.434 135.949C236.301 135.455 238.106 134.795 239.911 134.026C250.801 129.243 257.895 119.953 263.309 110.058C264.989 106.925 266.545 103.736 267.976 100.603C271.71 92.3573 275.444 84.0016 279.676 76.1408C286.521 63.4974 295.669 53.3277 307.928 45.3019C314.462 41.0691 322.677 37.441 331.389 37.386C343.835 37.3311 354.352 42.3334 364.558 45.3019C365.367 45.5218 366.176 45.7417 366.985 45.9615C379.182 49.1499 391.815 49.6996 403.763 46.0715C416.52 42.2235 428.531 32.9334 432.202 19.9601" stroke="white" stroke-opacity="0.04" stroke-miterlimit="10"/>
<path d="M18.7441 103.736C27.892 95.7654 38.2222 88.839 49.237 83.067C54.0909 80.4834 59.1938 78.1196 64.6701 76.7453C75.6849 73.9418 86.9486 75.3161 97.4655 78.2295C100.39 79.0541 103.191 79.9336 105.929 80.9231C117.628 85.1559 128.767 90.763 138.973 97.4145C149.117 104.011 158.202 111.982 169.093 118.633C179.796 125.175 190.998 131.772 203.133 135.949C213.525 139.468 225.1 140.897 235.679 138.093C237.608 137.598 239.475 136.939 241.28 136.169C252.419 131.277 259.7 121.822 265.301 111.707C267.043 108.519 268.661 105.275 270.155 102.032C274.075 93.6765 278.058 85.1009 282.601 77.1301C290.006 64.2668 299.839 54.0972 312.782 46.2363C319.254 42.3333 327.282 38.9801 335.683 38.8701C347.756 38.7052 358.086 43.0479 368.043 45.4117C368.852 45.5766 369.599 45.7965 370.408 45.9064C382.356 48.3801 394.491 48.1053 405.755 43.9824C417.765 39.6397 428.78 30.2396 431.891 17.5413" stroke="white" stroke-opacity="0.04" stroke-miterlimit="10"/>
<path d="M20.1746 107.969C29.1358 100.163 39.2171 93.4567 50.1074 87.9046C54.8991 85.4309 59.9398 83.177 65.2916 81.8028C76.0575 79.0542 87.0722 80.0987 97.4025 82.6273C100.265 83.342 103.065 84.1115 105.804 84.9911C117.441 88.7291 128.518 93.8964 138.786 100.108C148.929 106.265 158.202 113.741 168.905 120.173C179.982 126.769 191.308 133.586 203.754 137.873C214.333 141.557 226.219 143.096 237.047 140.347C239.039 139.852 240.906 139.193 242.773 138.368C254.223 133.421 261.628 123.746 267.416 113.411C269.22 110.168 270.901 106.815 272.456 103.571C276.564 95.0508 280.795 86.3104 285.711 78.2296C293.615 65.2014 304.132 54.9218 317.822 47.2808C324.232 43.7077 332.011 40.6293 340.225 40.4644C351.862 40.1895 362.068 43.9276 371.838 45.6317C372.585 45.7416 373.394 45.9065 374.141 46.0165C385.84 47.7206 397.477 46.6761 408.056 42.0585C419.32 37.1661 429.339 27.711 431.953 15.3425" stroke="white" stroke-opacity="0.04" stroke-miterlimit="10"/>
<path d="M21.5445 112.202C30.2568 104.506 40.2136 98.0193 50.855 92.7421C55.5845 90.3783 60.5007 88.2345 65.7281 86.9151C76.245 84.2216 87.0731 84.9362 97.2166 87.0801C100.017 87.6847 102.817 88.3444 105.555 89.114C117.13 92.4123 128.207 97.0848 138.475 102.857C148.681 108.574 158.078 115.555 168.595 121.712C179.983 128.363 191.496 135.4 204.191 139.852C214.956 143.645 227.154 145.35 238.168 142.601C240.16 142.106 242.151 141.447 244.08 140.622C255.842 135.62 263.372 125.725 269.346 115.17C271.213 111.872 272.893 108.464 274.573 105.111C278.867 96.4252 283.41 87.5748 288.575 79.3841C297.038 66.136 308.177 55.8014 322.615 48.4353C328.962 45.192 336.554 42.3884 344.458 42.1685C355.721 41.7837 365.741 44.8621 375.324 45.9616C376.071 46.0715 376.818 46.1265 377.564 46.1815C389.015 47.116 400.154 45.3019 410.049 40.2446C420.565 34.8574 429.589 25.2924 431.642 13.2537" stroke="white" stroke-opacity="0.04" stroke-miterlimit="10"/>
<path d="M22.975 116.49C31.5006 108.958 41.2708 102.692 51.7255 97.5794C56.3927 95.3256 61.2467 93.2917 66.3496 91.9724C76.6176 89.3337 87.1968 89.7185 97.2158 91.4776C100.016 91.9724 102.754 92.5221 105.492 93.1817C116.943 95.9852 128.02 100.218 138.412 105.495C148.68 110.718 158.139 117.259 168.532 123.196C180.293 129.903 191.993 137.104 204.874 141.776C215.889 145.734 228.335 147.603 239.599 144.8C241.652 144.305 243.644 143.645 245.635 142.821C257.708 137.763 265.424 127.649 271.523 116.874C273.452 113.466 275.195 110.003 276.937 106.65C281.418 97.7993 286.209 88.784 291.748 80.4834C300.771 67.0154 312.471 56.5709 327.655 49.4796C333.94 46.5661 341.283 44.0924 348.938 43.7626C359.828 43.3228 369.66 45.7415 379.057 46.1813C379.804 46.2363 380.551 46.2363 381.297 46.2363C392.499 46.4561 403.202 43.8175 412.35 38.2654C422.12 32.3285 430.148 22.6536 431.642 10.9997" stroke="white" stroke-opacity="0.04" stroke-miterlimit="10"/>
<path d="M24.4065 120.722C32.7454 113.356 42.2666 107.254 52.5969 102.417C57.2019 100.273 61.9314 98.3491 66.9099 97.0848C76.9289 94.5011 87.2592 94.5561 97.1538 95.9304C99.8919 96.3152 102.63 96.8099 105.368 97.3596C116.756 99.7234 127.771 103.461 138.226 108.299C148.494 113.081 158.14 119.073 168.345 124.79C180.418 131.552 192.304 138.973 205.497 143.81C216.698 147.933 229.393 149.912 240.968 147.109C243.084 146.614 245.138 145.954 247.129 145.13C259.451 140.017 267.354 129.683 273.639 118.688C275.63 115.225 277.435 111.707 279.24 108.244C283.845 99.2286 288.948 90.0484 294.797 81.6378C304.381 68.005 316.702 57.3405 332.633 50.5791C338.856 47.9405 346.013 45.7966 353.356 45.4118C363.873 44.8621 373.519 46.6211 382.667 46.4562C383.413 46.4562 384.098 46.4013 384.845 46.4013C395.797 45.8515 406.003 42.4433 414.466 36.3965C423.49 29.9649 430.522 20.18 431.455 8.85589" stroke="white" stroke-opacity="0.04" stroke-miterlimit="10"/>
<path d="M25.7755 124.955C33.8654 117.754 43.2622 111.872 53.4057 107.254C57.8863 105.221 62.5536 103.407 67.4698 102.142C77.24 99.6135 87.3213 99.3386 97.0914 100.328C99.8296 100.603 102.505 100.988 105.181 101.428C116.507 103.297 127.522 106.595 137.977 110.938C148.369 115.28 158.139 120.777 168.158 126.275C180.605 133.036 192.615 140.732 206.057 145.734C217.445 150.022 230.451 152.111 242.275 149.362C244.453 148.868 246.506 148.208 248.56 147.384C261.193 142.216 269.221 131.662 275.692 120.448C277.746 116.929 279.613 113.356 281.48 109.838C286.272 100.658 291.623 91.3678 297.846 82.8473C307.99 68.9945 320.872 58.1102 337.612 51.7335C343.772 49.3698 350.68 47.5557 357.774 47.1159C367.856 46.4563 377.377 47.5557 386.338 46.7861C387.023 46.7311 387.769 46.6762 388.454 46.5662C399.157 45.3019 408.865 41.1241 416.644 34.5825C424.921 27.6561 430.957 17.7613 431.331 6.76705" stroke="white" stroke-opacity="0.04" stroke-miterlimit="10"/>
<path d="M27.206 129.188C35.1092 122.152 44.3193 116.435 54.2762 112.092C58.6945 110.168 63.2996 108.464 68.0291 107.2C77.5503 104.726 87.3827 104.121 97.0284 104.726C99.7043 104.891 102.38 105.166 105.056 105.496C116.258 106.925 127.272 109.728 137.789 113.631C148.182 117.479 158.014 122.537 167.909 127.759C180.666 134.575 192.863 142.436 206.554 147.658C218.129 152.056 231.446 154.31 243.519 151.561C245.697 151.067 247.875 150.407 249.991 149.527C262.934 144.305 271.087 133.531 277.745 122.097C279.861 118.524 281.79 114.841 283.657 111.268C288.636 101.922 294.236 92.4673 300.771 83.8368C311.412 69.8192 324.978 58.6051 342.465 52.6682C348.563 50.5792 355.284 49.095 362.067 48.6003C371.775 47.8307 381.11 48.3254 389.884 46.9511C390.569 46.8412 391.253 46.7313 391.938 46.5663C402.393 44.5324 411.665 39.585 418.697 32.5487C426.227 25.0726 431.268 15.1228 431.081 4.45836" stroke="white" stroke-opacity="0.04" stroke-miterlimit="10"/>
<path d="M28.6384 133.476C36.2928 126.604 45.3784 121.107 55.1486 116.929C59.5047 115.115 63.9853 113.521 68.6525 112.312C77.9249 109.893 87.5706 108.959 97.0296 109.178C99.7055 109.233 102.319 109.398 104.995 109.618C116.134 110.553 127.149 112.916 137.666 116.38C148.058 119.788 158.078 124.296 167.785 129.353C180.916 136.169 193.238 144.305 207.177 149.692C219.001 154.255 232.567 156.619 244.827 153.87C247.067 153.375 249.307 152.716 251.423 151.836C264.616 146.559 272.955 135.565 279.8 123.966C281.978 120.283 283.97 116.6 285.899 112.971C291.064 103.461 296.913 93.8414 303.759 85.101C314.96 70.8635 329.087 59.3195 347.32 53.8773C353.356 52.0633 359.828 50.9639 366.362 50.3592C375.697 49.4796 384.845 49.3147 393.433 47.3358C394.117 47.1708 394.802 47.0059 395.486 46.841C405.692 44.0924 414.467 38.3205 420.814 30.7894C427.597 22.8186 431.642 12.7039 430.958 2.42424" stroke="white" stroke-opacity="0.04" stroke-miterlimit="10"/>
<path d="M30.0699 137.709C47.4322 122.152 72.3243 114.016 97.0298 113.576C121.735 113.136 146.192 119.953 167.661 130.782C181.165 137.599 193.673 146.009 207.862 151.561C222.05 157.113 238.853 159.587 253.041 153.98C270.777 146.999 279.8 129.848 288.326 114.401C302.328 89.0041 321.806 62.7828 352.485 54.8669C367.794 50.909 384.472 52.0084 399.283 46.7862C419.756 39.5299 433.385 19.4654 431.02 0.0605815" stroke="white" stroke-opacity="0.04" stroke-miterlimit="10"/>
</svg>
