<svg width="54" height="54" viewBox="0 0 54 54" fill="none" xmlns="http://www.w3.org/2000/svg">
<g filter="url(#filter0_b_2_870)">
<path d="M25.9166 0.502709C26.301 -0.167552 27.2678 -0.167552 27.6522 0.50271L30.8766 6.12497C31.1671 6.63155 31.8279 6.78262 32.3097 6.45259L37.706 2.75592C38.3455 2.31779 39.2189 2.7422 39.2695 3.51579L39.6892 9.91896C39.7277 10.5064 40.2627 10.9338 40.8442 10.8415L47.3143 9.81509C48.0856 9.69272 48.6935 10.4619 48.396 11.1841L45.96 17.0987C45.7336 17.6485 46.0339 18.2734 46.6048 18.44L52.8484 20.2618C53.6025 20.4818 53.8204 21.4453 53.2343 21.9684L48.4333 26.2537C47.9877 26.6514 47.9877 27.3486 48.4333 27.7463L53.2343 32.0316C53.8204 32.5547 53.6025 33.5182 52.8484 33.7382L46.6048 35.56C46.0339 35.7266 45.7336 36.3515 45.96 36.9013L48.396 42.8159C48.6935 43.5381 48.0856 44.3073 47.3143 44.1849L40.8442 43.1585C40.2627 43.0662 39.7277 43.4936 39.6892 44.081L39.2696 50.4842C39.2189 51.2578 38.3455 51.6822 37.706 51.2441L32.3097 47.5474C31.8279 47.2174 31.1671 47.3684 30.8766 47.875L27.6522 53.4973C27.2678 54.1676 26.301 54.1676 25.9166 53.4973L22.6923 47.875C22.4017 47.3684 21.7409 47.2174 21.2591 47.5474L15.8629 51.2441C15.2233 51.6822 14.35 51.2578 14.2993 50.4842L13.8796 44.081C13.8411 43.4936 13.3061 43.0662 12.7246 43.1585L6.2545 44.1849C5.48316 44.3073 4.87535 43.5381 5.17277 42.8159L7.60877 36.9013C7.83524 36.3515 7.53487 35.7266 6.96399 35.56L0.720426 33.7382C-0.0336726 33.5182 -0.251561 32.5547 0.334489 32.0316L5.1355 27.7463C5.58114 27.3486 5.58114 26.6514 5.1355 26.2537L0.334488 21.9684C-0.251562 21.4453 -0.0336742 20.4818 0.720425 20.2618L6.96399 18.44C7.53486 18.2734 7.83524 17.6485 7.60877 17.0987L5.17277 11.1841C4.87535 10.4619 5.48316 9.69272 6.2545 9.81509L12.7246 10.8415C13.3061 10.9338 13.8411 10.5064 13.8796 9.91896L14.2993 3.51579C14.35 2.7422 15.2233 2.31779 15.8629 2.75592L21.2591 6.45259C21.7409 6.78262 22.4017 6.63155 22.6923 6.12497L25.9166 0.502709Z" fill="#D9D9D9" fill-opacity="0.4"/>
<path d="M26.7844 1.00039L30.0088 6.62265C30.5898 7.63581 31.9115 7.93795 32.8751 7.27788L38.2713 3.58121L38.691 9.98438C38.768 11.1593 39.838 12.0141 41.0009 11.8296L47.4711 10.8031L45.0351 16.7177C44.5821 17.8174 45.1829 19.0671 46.3246 19.4003L52.5682 21.2221L47.7672 25.5074C46.8759 26.3029 46.8759 27.6971 47.7672 28.4926L52.5682 32.7779L46.3246 34.5997C45.1829 34.9329 44.5821 36.1826 45.0351 37.2823L47.4711 43.1969L41.0009 42.1704C39.838 41.9859 38.768 42.8407 38.691 44.0156L38.2713 50.4188L32.8751 46.7221C31.9115 46.062 30.5898 46.3642 30.0088 47.3774L26.7844 52.9996L23.56 47.3774C22.979 46.3642 21.6573 46.062 20.6937 46.7221L15.2975 50.4188L14.8778 44.0156C14.8008 42.8407 13.7308 41.9859 12.5679 42.1704L6.09776 43.1969L8.53376 37.2823C8.9867 36.1826 8.38596 34.9329 7.2442 34.5997L1.00064 32.7779L5.80165 28.4926C6.69292 27.6971 6.69292 26.3029 5.80165 25.5074L5.1355 26.2537L5.80165 25.5074L1.00064 21.2221L7.2442 19.4003C8.38595 19.0671 8.9867 17.8174 8.53376 16.7177L6.09776 10.8031L12.5679 11.8296C13.7308 12.0141 14.8008 11.1593 14.8778 9.98438L15.2975 3.58121L20.6937 7.27788C21.6573 7.93795 22.979 7.63581 23.56 6.62265L26.7844 1.00039Z" stroke="#385182" stroke-width="2"/>
</g>
<defs>
<filter id="filter0_b_2_870" x="-9.00336" y="-9.00336" width="71.5755" height="72.0067" filterUnits="userSpaceOnUse" color-interpolation-filters="sRGB">
<feFlood flood-opacity="0" result="BackgroundImageFix"/>
<feGaussianBlur in="BackgroundImageFix" stdDeviation="4.5"/>
<feComposite in2="SourceAlpha" operator="in" result="effect1_backgroundBlur_2_870"/>
<feBlend mode="normal" in="SourceGraphic" in2="effect1_backgroundBlur_2_870" result="shape"/>
</filter>
</defs>
</svg>
