<svg width="17" height="19" viewBox="0 0 17 19" fill="none" xmlns="http://www.w3.org/2000/svg">
<path d="M16.2195 6.20975C15.2463 1.9278 11.5112 0 8.23022 0C8.23022 0 8.23022 0 8.22095 0C4.94925 0 1.20486 1.91854 0.231687 6.20048C-0.852703 10.9829 2.07608 15.0332 4.72681 17.5819C5.70925 18.5273 6.96973 19 8.23022 19C9.49071 19 10.7512 18.5273 11.7244 17.5819C14.3751 15.0332 17.3039 10.9922 16.2195 6.20975ZM8.23022 10.8532C6.61754 10.8532 5.31071 9.54634 5.31071 7.93365C5.31071 6.32097 6.61754 5.01414 8.23022 5.01414C9.8429 5.01414 11.1497 6.32097 11.1497 7.93365C11.1497 9.54634 9.8429 10.8532 8.23022 10.8532Z" fill="#385182"/>
</svg>
