<svg width="23" height="23" viewBox="0 0 23 23" fill="none" xmlns="http://www.w3.org/2000/svg">
<g id="vuesax/bold/call">
<g id="call">
<path id="Vector" d="M10.2002 13.8L8.49247 15.5077C8.13247 15.8677 7.56016 15.8677 7.19093 15.517C7.08939 15.4154 6.98785 15.3231 6.88631 15.2216C5.93554 14.2616 5.07708 13.2554 4.31093 12.2031C3.55401 11.1508 2.94477 10.0985 2.5017 9.05542C2.06785 8.00311 1.84631 6.99696 1.84631 6.03696C1.84631 5.40927 1.95708 4.80927 2.17862 4.25542C2.40016 3.69235 2.75093 3.17542 3.24016 2.71388C3.83093 2.13235 4.47708 1.84619 5.16016 1.84619C5.41862 1.84619 5.67708 1.90158 5.90785 2.01235C6.14785 2.12311 6.36016 2.28927 6.52631 2.52927L8.66785 5.54773C8.83401 5.7785 8.95401 5.99081 9.03708 6.19388C9.12016 6.38773 9.16631 6.58158 9.16631 6.75696C9.16631 6.9785 9.1017 7.20004 8.97247 7.41234C8.85247 7.62465 8.67708 7.84619 8.45554 8.06773L7.754 8.79696C7.65247 8.8985 7.60631 9.0185 7.60631 9.16619C7.60631 9.24004 7.61554 9.30465 7.63401 9.3785C7.6617 9.45235 7.68939 9.50773 7.70785 9.56311C7.87401 9.86773 8.16016 10.2647 8.56631 10.7447C8.9817 11.2247 9.42477 11.7139 9.90477 12.2031C9.99708 12.2954 10.0986 12.3877 10.1909 12.48C10.5602 12.84 10.5694 13.4308 10.2002 13.8Z" fill="#385182"/>
<path id="Vector_2" d="M20.2802 16.92C20.2802 17.1784 20.234 17.4461 20.1417 17.7046C20.114 17.7784 20.0863 17.8523 20.0494 17.9261C19.8925 18.2584 19.6894 18.5723 19.4217 18.8677C18.9694 19.3661 18.4709 19.7261 17.9078 19.9569C17.8986 19.9569 17.8894 19.9661 17.8802 19.9661C17.3355 20.1877 16.7448 20.3077 16.1078 20.3077C15.1663 20.3077 14.1602 20.0861 13.0986 19.6338C12.0371 19.1815 10.9755 18.5723 9.92323 17.8061C9.56323 17.5384 9.20323 17.2707 8.86169 16.9846L11.8802 13.9661C12.1386 14.16 12.3694 14.3077 12.5632 14.4092C12.6094 14.4277 12.6648 14.4553 12.7294 14.483C12.8032 14.5107 12.8771 14.52 12.9602 14.52C13.1171 14.52 13.2371 14.4646 13.3386 14.363L14.0402 13.6707C14.2709 13.44 14.4925 13.2646 14.7048 13.1538C14.9171 13.0246 15.1294 12.96 15.3602 12.96C15.5355 12.96 15.7202 12.9969 15.9232 13.08C16.1263 13.163 16.3386 13.283 16.5694 13.44L19.6248 15.6092C19.8648 15.7753 20.0309 15.9692 20.1325 16.2C20.2248 16.4307 20.2802 16.6615 20.2802 16.92Z" fill="#385182"/>
</g>
</g>
</svg>
