<svg width="1184" height="332" viewBox="0 0 1184 332" fill="none" xmlns="http://www.w3.org/2000/svg">
<path d="M1 102.852C33.5975 81.6036 68.0626 61.7413 104.056 43.3802C120.015 35.1812 136.823 27.2131 156.178 23.5178C205.583 14.164 255.838 35.5276 293.529 58.9698C328.334 80.6798 359.233 105.161 385.549 131.721C411.695 158.166 433.596 187.036 468.061 208.515C502.527 230.109 554.139 242.927 596.584 229.532C621.881 221.564 640.047 205.512 650.064 187.844C660.081 170.176 662.628 151.006 663.307 132.068C663.986 110.358 662.628 87.6085 677.738 68.5545C693.528 48.8076 727.144 36.4514 759.911 38.1836C806.6 40.6087 841.066 67.3997 875.191 89.3406C918.485 117.171 971.116 140.498 1030.37 145.463C1089.45 150.429 1155.16 133.453 1183 97.6551" stroke="white" stroke-opacity="0.04" stroke-miterlimit="10"/>
<path d="M4.90576 111.744C36.8242 90.8425 70.78 71.4421 106.434 53.5429C122.223 45.5749 138.861 37.7223 157.707 34.1425C195.737 26.8674 234.447 37.8378 267.554 53.7739C276.552 58.1621 285.211 62.7812 293.19 67.6313C327.825 88.302 358.725 111.86 385.041 137.496C411.187 162.901 433.258 190.963 467.383 211.864C486.568 223.527 510.507 232.881 535.295 237.154C557.027 240.849 579.607 240.618 599.981 234.382C603.716 233.228 607.111 231.957 610.507 230.572C631.39 221.795 646.5 207.245 655.498 191.655C658.384 186.574 660.761 181.493 662.799 176.297C667.892 162.67 670.099 148.582 671.457 134.609C673.665 112.553 674.683 89.8032 691.152 70.9802C707.451 52.2727 739.709 40.1474 771.797 41.7641C817.467 43.9582 851.423 69.3635 885.039 90.0342C887.756 91.6509 890.302 93.2676 893.019 94.8843C933.936 118.904 982.492 138.073 1036.14 141.653C1093.19 145.579 1156.18 128.373 1182.49 93.2676" stroke="white" stroke-opacity="0.04" stroke-miterlimit="10"/>
<path d="M8.81055 120.636C40.2196 100.08 73.666 81.0263 108.81 63.5891C124.43 55.852 140.729 48.2304 159.404 44.766C196.756 37.6064 234.786 47.884 267.553 63.0117C276.382 67.1689 285.041 71.5571 293.02 76.1762C327.316 95.9231 358.215 118.441 384.871 143.154C411.186 167.635 433.427 194.773 467.213 214.982C487.077 226.876 511.695 236.576 537.162 241.195C559.403 245.237 582.663 245.237 603.885 239.001C607.62 237.846 611.355 236.576 614.751 235.19C636.313 226.298 651.933 211.286 661.44 195.235C664.496 190.038 667.043 184.842 669.25 179.414C674.853 165.441 677.739 151.006 679.946 136.918C683.681 114.4 687.247 91.8813 704.904 73.1738C721.712 55.5055 752.781 43.7267 784.02 45.1125C828.672 47.1911 862.119 71.2106 895.225 90.4956C897.772 91.9968 900.489 93.498 903.205 94.9993C943.443 117.402 990.641 134.955 1042.42 137.611C1097.43 140.498 1157.7 123.061 1182.49 88.6479" stroke="white" stroke-opacity="0.04" stroke-miterlimit="10"/>
<path d="M12.7148 129.527C43.4448 109.319 76.5517 90.7266 111.187 73.7513C126.636 66.2452 142.765 58.8545 160.932 55.3902C197.604 48.346 235.125 57.9307 267.383 72.2501C276.212 76.1764 284.701 80.3336 292.51 84.7218C326.636 103.429 357.536 125.024 384.191 148.697C410.676 172.255 432.917 198.468 466.534 218.1C487.247 230.225 512.374 240.271 538.69 245.237C561.44 249.51 585.549 249.856 607.45 243.736C611.355 242.581 615.09 241.311 618.825 239.925C641.236 230.918 657.195 215.444 667.212 198.93C670.438 193.618 673.154 188.191 675.362 182.763C681.304 168.444 685.039 153.663 688.265 139.343C693.358 116.478 699.47 93.96 718.485 75.4835C735.633 58.7391 765.514 47.3067 796.074 48.577C839.707 50.4246 872.644 73.0584 905.072 91.0731C907.619 92.4588 910.166 93.8446 912.882 95.2303C952.441 116.132 998.451 131.953 1048.2 133.569C1101.17 135.301 1158.72 117.749 1181.98 84.0289" stroke="white" stroke-opacity="0.04" stroke-miterlimit="10"/>
<path d="M16.4497 138.535C46.6703 118.672 79.0981 100.427 113.393 84.0286C128.504 76.7535 144.463 69.5938 162.459 66.2449C198.453 59.3162 235.295 68.2081 267.213 81.7191C275.872 85.4144 284.361 89.3406 292.17 93.4979C326.126 111.282 356.856 131.837 383.681 154.586C410.167 177.104 432.747 202.51 466.024 221.448C487.586 233.689 513.222 244.197 540.217 249.51C563.477 254.129 588.434 254.706 611.015 248.586C615.09 247.546 618.995 246.161 622.73 244.659C645.989 235.537 662.288 219.601 672.815 202.625C676.21 197.198 679.096 191.655 681.473 185.996C687.925 171.33 692.339 156.318 696.414 141.652C703.035 118.326 711.354 96.0384 731.728 77.6773C749.215 61.8567 778.077 50.7708 807.958 51.9256C850.403 53.5423 883.001 74.9058 914.919 91.5347C917.466 92.805 920.012 94.1907 922.559 95.461C961.438 114.746 1006.09 128.95 1053.97 129.527C1104.9 130.22 1159.74 112.321 1181.64 79.4095" stroke="white" stroke-opacity="0.04" stroke-miterlimit="10"/>
<path d="M20.3535 147.427C50.0648 127.911 81.9832 110.127 115.769 94.1914C130.71 87.1472 146.499 80.2184 163.986 76.8696C199.3 70.0563 235.463 78.2553 267.042 90.958C275.701 94.4223 284.02 98.2331 291.83 102.044C325.446 118.788 356.176 138.42 383.171 160.245C409.826 181.84 432.576 206.321 465.514 224.682C487.924 237.154 514.07 247.893 541.744 253.667C565.683 258.633 591.15 259.441 614.41 253.321C618.654 252.282 622.559 250.896 626.464 249.395C650.572 240.156 667.211 223.758 678.246 206.321C681.812 200.778 684.868 195.004 687.414 189.346C694.375 174.449 699.469 158.975 704.392 144.194C712.542 120.52 723.238 98.3486 744.969 80.103C762.796 65.3217 790.47 54.4667 819.672 55.506C861.098 56.8918 893.186 76.8695 924.595 92.2282C927.142 93.4985 929.519 94.6533 932.066 95.8081C970.266 113.476 1013.56 126.063 1059.57 125.717C1108.47 125.255 1160.59 107.24 1180.96 74.9064" stroke="white" stroke-opacity="0.04" stroke-miterlimit="10"/>
<path d="M24.2603 156.318C53.2924 137.149 84.8713 119.711 118.148 104.237C132.919 97.3086 148.369 90.7263 165.686 87.3774C200.321 80.6797 235.805 88.1858 267.044 100.08C275.533 103.313 283.852 106.893 291.662 110.473C325.108 126.294 355.838 144.886 382.833 165.672C409.658 186.343 432.578 209.785 465.176 227.568C488.436 240.271 515.261 251.357 543.444 257.477C567.892 262.674 594.208 263.829 618.147 257.708C622.391 256.669 626.635 255.283 630.71 253.782C655.498 244.428 672.646 227.568 684.191 209.669C687.926 203.895 691.151 198.121 693.868 192.232C701.338 176.989 707.111 161.168 713.053 146.156C722.561 122.021 735.464 100.08 758.893 82.0654C776.89 68.0925 803.715 57.6994 832.068 58.6233C872.475 59.778 904.054 78.3701 934.954 92.4585C937.331 93.6133 939.877 94.6526 942.254 95.6919C979.775 111.859 1021.88 122.714 1065.85 121.328C1112.71 119.827 1162.12 101.581 1180.96 69.9402" stroke="white" stroke-opacity="0.04" stroke-miterlimit="10"/>
<path d="M28.1631 165.211C56.6859 146.388 87.5857 129.413 120.523 114.401C135.124 107.703 150.234 101.352 167.212 98.1182C201.337 91.5359 235.972 98.4646 266.872 109.435C275.361 112.438 283.51 115.786 291.32 119.135C324.597 133.917 355.157 151.585 382.322 171.447C409.147 191.078 432.406 213.712 464.664 230.919C488.773 243.737 516.107 255.285 545.14 261.751C570.097 267.294 597.262 268.68 621.88 262.675C626.294 261.636 630.708 260.25 634.783 258.749C660.419 249.28 677.907 232.073 690.131 213.597C694.036 207.707 697.261 201.703 700.317 195.813C708.297 180.223 714.749 164.172 721.54 148.813C732.575 124.216 747.686 102.506 772.643 84.6072C790.64 71.5581 816.616 61.6269 844.29 62.2043C883.509 63.1281 914.748 80.4499 945.139 93.1526C947.515 94.1919 949.892 95.1157 952.439 96.155C989.281 110.705 1030.03 120.059 1072.13 117.519C1116.95 114.863 1163.64 96.5015 1180.96 65.5532" stroke="white" stroke-opacity="0.04" stroke-miterlimit="10"/>
<path d="M31.8994 174.219C59.9129 155.742 90.3033 139.113 122.731 124.563C137.162 118.096 152.103 111.976 168.741 108.742C202.188 102.275 236.143 108.511 266.703 118.673C275.023 121.445 283.172 124.563 290.812 127.796C323.919 141.654 354.479 158.283 381.644 177.106C408.639 195.813 432.068 217.408 463.986 234.037C488.944 247.086 516.788 258.864 546.499 265.793C572.135 271.683 599.979 273.299 625.276 267.294C629.86 266.255 634.274 264.869 638.519 263.368C665.004 253.783 682.831 236.115 695.565 217.177C699.639 211.172 703.035 205.051 706.261 198.931C714.58 182.995 721.88 166.597 729.69 151.123C742.254 126.179 759.401 104.585 785.887 86.8013C804.053 74.676 829.181 65.0913 856.006 65.5532C894.206 66.2461 924.936 82.1821 954.647 93.73C957.024 94.6538 959.401 95.4622 961.778 96.386C997.941 109.435 1037.33 117.057 1077.57 113.592C1120.35 109.897 1164.15 91.1895 1180.11 61.0495" stroke="white" stroke-opacity="0.04" stroke-miterlimit="10"/>
<path d="M35.8052 183.11C63.1396 164.98 93.1904 148.813 125.109 134.725C139.2 128.489 153.971 122.599 170.27 119.366C203.037 113.015 236.314 118.558 266.535 127.911C274.854 130.452 282.833 133.339 290.473 136.341C323.241 149.16 353.801 164.865 381.305 182.764C408.47 200.547 432.239 221.218 463.648 237.27C489.454 250.434 517.807 262.675 548.198 269.95C574.344 276.071 602.866 278.034 629.012 272.029C633.766 270.989 638.35 269.604 642.764 267.987C669.929 258.287 688.265 240.157 701.508 220.756C705.752 214.636 709.318 208.285 712.713 202.164C721.542 185.882 729.521 169.137 738.18 153.432C752.272 128.027 771.457 106.548 799.64 88.9952C817.637 77.6782 842.085 68.5554 868.231 68.9019C905.412 69.4793 935.633 84.0296 964.835 94.1917C967.212 95 969.419 95.8084 971.796 96.5013C1007.28 107.934 1045.48 113.939 1083.68 109.435C1124.43 104.585 1165.51 85.7617 1180.11 56.3147" stroke="white" stroke-opacity="0.04" stroke-miterlimit="10"/>
<path d="M39.709 192.001C66.534 174.217 96.0756 158.512 127.485 144.886C141.406 138.881 156.007 133.222 171.967 130.104C204.055 123.869 236.822 128.719 266.533 137.264C274.683 139.574 282.662 142.23 290.302 145.001C322.9 156.895 353.29 171.561 380.964 188.537C408.129 205.281 432.238 225.028 463.307 240.502C489.962 253.782 518.825 266.485 550.064 274.106C576.719 280.573 606.091 282.767 632.746 276.762C637.5 275.723 642.254 274.337 646.838 272.721C674.851 262.905 693.527 244.313 707.279 224.45C711.524 218.215 715.429 211.748 718.994 205.396C728.332 188.768 736.991 171.792 746.668 155.741C762.288 129.989 783.51 108.625 813.391 91.1881C831.387 80.6796 855.157 72.0187 880.454 72.2496C916.616 72.5961 946.328 85.7606 975.02 94.6525C977.228 95.3453 979.604 96.0382 981.812 96.7311C1016.62 106.547 1053.46 110.935 1089.79 105.392C1128.67 99.5026 1166.87 80.4486 1179.94 51.6944" stroke="white" stroke-opacity="0.04" stroke-miterlimit="10"/>
<path d="M43.4438 200.894C69.5898 183.456 98.622 168.098 129.691 155.049C143.444 149.275 157.705 143.847 173.325 140.729C204.734 134.609 236.822 138.766 266.194 146.503C274.343 148.582 282.153 151.007 289.793 153.547C322.221 164.402 352.611 178.144 380.285 194.08C407.619 209.901 431.898 228.608 462.628 243.621C490.132 257.132 519.673 270.181 551.422 278.149C578.587 284.962 608.807 287.387 636.142 281.498C641.065 280.458 645.989 279.073 650.573 277.456C679.435 267.525 698.451 248.471 712.712 228.146C717.126 221.68 721.201 215.213 724.936 208.746C734.783 191.771 744.121 174.449 754.647 158.166C771.625 131.953 794.885 110.589 826.634 93.4984C844.63 83.7982 867.55 75.7147 892.168 75.7147C927.143 75.8302 956.514 87.7245 984.698 95.2306C986.905 95.808 989.112 96.3854 991.489 96.9628C1025.44 105.277 1061.1 107.933 1095.56 101.351C1132.41 94.4223 1167.89 75.1373 1179.43 47.076" stroke="white" stroke-opacity="0.04" stroke-miterlimit="10"/>
<path d="M47.3506 209.901C72.9872 192.81 101.51 177.913 132.07 165.326C145.652 159.783 159.744 154.586 175.024 151.584C205.754 145.579 237.163 149.159 266.195 155.972C274.175 157.935 281.985 160.014 289.625 162.323C321.713 172.139 352.103 184.957 379.947 199.969C407.451 214.866 432.069 232.534 462.12 247.085C490.473 260.711 520.524 274.107 552.952 282.537C580.795 289.581 611.695 292.352 639.709 286.463C644.802 285.424 649.726 284.038 654.649 282.421C684.361 272.374 703.715 252.859 718.486 232.072C723.07 225.49 727.315 218.792 731.219 212.21C741.406 194.888 751.593 177.336 763.138 160.822C781.814 134.262 806.771 112.898 840.217 96.0386C858.044 87.1467 880.455 79.5251 904.224 79.4096C938.18 79.2942 966.872 89.8027 994.716 96.0386C996.923 96.5005 999.13 96.9624 1001.34 97.4243C1034.61 104.122 1069.08 105.277 1101.68 97.6553C1136.48 89.5718 1169.25 70.0559 1179.27 42.8029" stroke="white" stroke-opacity="0.04" stroke-miterlimit="10"/>
<path d="M51.2544 218.792C76.2119 202.048 104.395 187.498 134.446 175.372C147.689 169.945 161.611 164.979 176.551 162.092C206.602 156.203 237.332 159.09 266.025 165.21C274.004 166.942 281.644 168.79 289.115 170.869C321.033 179.761 351.423 191.539 379.267 205.512C406.941 219.37 431.729 236.114 461.44 250.087C490.642 263.829 521.202 277.686 554.309 286.463C582.662 293.853 614.241 296.856 643.103 290.966C648.367 289.927 653.46 288.541 658.384 286.925C688.774 276.647 708.638 256.785 723.918 235.537C728.672 228.839 733.086 222.026 737.161 215.212C747.857 197.66 758.723 179.645 771.117 162.901C791.32 135.879 818.145 114.515 853.459 98.0016C871.116 89.8027 893.018 82.7585 915.938 82.5275C948.875 82.1811 977.058 91.3039 1004.22 96.2695C1006.43 96.6159 1008.47 97.0778 1010.67 97.3088C1043.27 102.505 1076.38 101.928 1107.11 93.267C1139.88 84.1442 1169.93 64.3974 1178.42 37.7218" stroke="white" stroke-opacity="0.04" stroke-miterlimit="10"/>
<path d="M55.1587 227.685C79.6068 211.287 107.111 197.198 136.822 185.535C149.895 180.338 163.647 175.604 178.248 172.717C207.62 166.943 237.671 169.137 265.854 174.449C273.664 175.95 281.304 177.567 288.774 179.415C320.523 187.267 350.744 198.122 378.757 211.171C406.431 224.105 431.728 239.81 460.93 253.321C491.151 267.178 522.05 281.498 556.006 290.505C584.869 298.242 617.296 301.476 646.838 295.702C652.271 294.662 657.364 293.277 662.457 291.544C693.697 281.151 713.9 260.827 729.69 239.117C734.613 232.304 739.197 225.26 743.442 218.446C754.647 200.547 766.192 182.186 779.605 165.211C801.167 137.842 829.859 116.248 867.211 100.196C884.698 92.6902 905.92 86.2234 928.331 85.8769C960.08 85.2995 987.923 93.1521 1014.58 96.7319C1016.62 96.9629 1018.82 97.3093 1020.86 97.5403C1052.78 101.12 1084.53 98.926 1113.39 89.2258C1144.12 78.9482 1171.45 59.0859 1178.58 33.1032" stroke="white" stroke-opacity="0.04" stroke-miterlimit="10"/>
<path d="M58.8945 236.576C82.6636 220.409 109.828 206.783 138.86 195.697C151.764 190.731 165.176 186.228 179.437 183.456C208.13 177.798 237.672 179.299 265.346 183.803C272.986 185.073 280.626 186.459 288.096 188.075C319.675 195.004 349.895 204.82 377.909 216.945C405.753 228.955 431.389 243.621 460.082 256.554C491.151 270.527 522.56 285.308 557.195 294.662C586.567 302.63 619.844 306.21 649.895 300.436C655.327 299.397 660.76 298.011 666.024 296.279C698.112 285.77 718.655 264.984 734.954 242.812C740.047 235.884 744.631 228.724 749.215 221.68C760.93 203.434 773.324 184.842 787.415 167.636C810.505 139.805 840.896 118.095 880.284 102.621C897.602 95.8079 918.315 89.9185 939.877 89.4566C970.607 88.6483 997.941 95.1151 1024.09 97.4246C1026.12 97.6556 1028.16 97.7711 1030.2 97.8866C1061.44 99.8497 1091.83 96.0389 1118.82 85.4149C1147.52 74.098 1172.13 54.0047 1177.74 28.7148" stroke="white" stroke-opacity="0.04" stroke-miterlimit="10"/>
<path d="M62.8003 245.584C86.06 229.764 112.715 216.599 141.238 205.859C153.972 201.125 167.214 196.852 181.136 194.081C209.15 188.538 238.012 189.346 265.346 193.041C272.986 194.081 280.457 195.235 287.927 196.621C319.166 202.511 349.387 211.402 377.74 222.488C405.753 233.459 431.56 247.201 459.913 259.673C492.001 273.761 523.919 288.889 559.064 298.704C589.115 307.019 623.07 310.945 653.8 305.056C659.403 304.016 664.836 302.631 670.269 300.898C703.206 290.274 724.258 269.026 740.897 246.392C746.16 239.233 750.914 231.958 755.668 224.913C767.892 206.321 780.965 187.383 796.075 169.946C820.693 141.653 852.611 119.712 894.037 104.816C911.185 98.6953 931.219 93.4988 952.102 92.8059C981.813 91.8821 1008.64 96.9631 1034.27 97.887C1036.31 98.0024 1038.35 98.0024 1040.39 98.0024C1070.95 98.4643 1100.15 92.9214 1125.11 81.258C1151.76 68.7863 1173.66 48.4621 1177.74 23.9806" stroke="white" stroke-opacity="0.04" stroke-miterlimit="10"/>
<path d="M66.7041 254.475C89.4545 239.001 115.431 226.183 143.614 216.021C156.178 211.517 169.081 207.475 182.663 204.819C209.997 199.392 238.181 199.507 265.176 202.394C272.646 203.203 280.116 204.242 287.586 205.397C318.656 210.362 348.707 218.215 377.23 228.377C405.243 238.423 431.559 251.011 459.403 263.02C492.34 277.224 524.767 292.814 560.761 302.976C591.321 311.637 625.956 315.794 657.534 309.905C663.307 308.865 668.91 307.48 674.343 305.748C707.959 295.008 729.521 273.298 746.668 250.202C752.101 242.927 757.025 235.537 761.948 228.261C774.512 209.323 788.434 190.038 804.393 172.37C830.539 143.731 864.155 121.328 907.619 107.124C924.597 101.581 944.121 97.0777 964.155 96.2693C992.848 95.1145 1019.16 98.8098 1044.12 98.4634C1046.16 98.4634 1048.03 98.3479 1050.06 98.3479C1079.94 97.1931 1107.79 90.0335 1130.88 77.3308C1155.5 63.8198 1174.68 43.2646 1177.23 19.476" stroke="white" stroke-opacity="0.04" stroke-miterlimit="10"/>
<path d="M70.4395 263.367C92.5107 248.239 118.147 235.883 145.821 226.183C158.045 221.91 170.779 218.099 184.191 215.443C210.847 210.131 238.351 209.554 265.006 211.633C272.476 212.21 279.777 213.018 287.077 213.942C317.977 217.869 348.028 224.797 376.551 233.92C404.904 243.043 431.559 254.591 458.893 266.139C492.849 280.342 525.616 296.509 562.289 307.018C593.358 316.025 628.842 320.414 661.1 314.64C667.042 313.6 672.645 312.215 678.248 310.482C712.713 299.627 734.614 277.455 752.271 253.898C757.874 246.507 762.967 239.001 768.06 231.61C781.133 212.326 795.734 192.81 812.712 174.91C840.386 145.81 875.53 122.945 921.201 109.55C938.009 104.584 956.855 100.773 976.209 99.8494C1003.71 98.4636 1029.69 100.773 1054.14 99.1565C1056.01 99.041 1058.04 98.9255 1059.91 98.6946C1089.11 96.0386 1115.6 87.2622 1136.82 73.5202C1159.4 58.9699 1175.87 38.1838 1176.89 15.0881" stroke="white" stroke-opacity="0.04" stroke-miterlimit="10"/>
<path d="M74.3433 272.26C95.9052 257.479 121.032 245.469 148.197 236.346C160.251 232.304 172.815 228.724 185.718 226.068C211.694 220.872 238.519 219.602 264.835 220.872C272.136 221.218 279.436 221.796 286.737 222.489C317.297 225.491 347.348 231.38 376.04 239.579C404.393 247.663 431.218 258.287 458.213 269.257C493.018 283.577 526.294 300.09 563.646 311.061C595.225 320.299 631.557 325.034 664.494 319.26C670.437 318.22 676.379 316.835 682.151 314.987C717.465 304.016 739.706 281.383 757.873 257.363C763.645 249.857 768.908 242.12 774.002 234.614C787.584 214.982 802.864 195.12 820.691 176.99C849.723 147.543 886.735 123.985 934.443 111.514C951.081 107.125 969.417 104.007 987.923 102.968C1014.41 101.351 1039.88 102.391 1063.81 99.5038C1065.68 99.2729 1067.55 99.0419 1069.42 98.6955C1097.94 94.4228 1123.24 84.0297 1142.42 69.2484C1162.96 53.5433 1176.72 32.6417 1176.21 10.2388" stroke="white" stroke-opacity="0.04" stroke-miterlimit="10"/>
<path d="M78.25 281.267C99.1328 266.832 123.92 255.284 150.576 246.507C162.46 242.697 174.684 239.348 187.418 236.807C212.715 231.726 239.031 229.763 264.837 230.225C272.137 230.34 279.268 230.687 286.569 231.149C316.959 233.112 347.01 238.078 375.702 245.353C404.055 252.512 431.39 261.982 457.875 272.606C493.699 286.925 527.315 304.016 565.345 315.333C597.603 324.918 634.615 329.883 668.062 324.109C674.174 323.07 680.286 321.684 686.058 319.836C722.051 308.75 744.802 285.655 763.477 261.289C769.419 253.552 774.852 245.815 780.116 238.193C794.207 218.215 810.166 198.006 828.842 179.645C859.402 149.736 897.942 125.486 947.687 114.053C964.156 110.243 981.813 107.933 999.64 106.663C1025.11 104.815 1050.06 104.469 1073.49 100.312C1075.36 99.9651 1077.23 99.6187 1079.1 99.2722C1106.94 93.4983 1130.88 81.373 1148.2 65.5525C1166.7 48.8081 1177.74 27.56 1175.87 5.96548" stroke="white" stroke-opacity="0.04" stroke-miterlimit="10"/>
<path d="M82.1538 290.159C129.522 257.478 197.434 240.387 264.836 239.463C332.238 238.54 398.961 252.859 457.535 275.608C494.377 289.928 528.502 307.596 567.212 319.259C605.921 330.923 651.762 336.119 690.471 324.34C738.858 309.674 763.476 273.645 786.736 241.196C824.936 187.844 878.077 132.761 961.778 116.132C1003.54 107.818 1049.04 110.127 1089.45 99.1568C1145.31 83.9137 1182.49 41.764 1176.04 1" stroke="white" stroke-opacity="0.04" stroke-miterlimit="10"/>
</svg>
