<svg width="435" height="159" viewBox="0 0 435 159" fill="none" xmlns="http://www.w3.org/2000/svg">
<path d="M1 49.4567C12.9414 39.3477 25.5669 29.8981 38.7522 21.1627C44.5985 17.2619 50.7558 13.4711 57.846 11.713C75.9447 7.26287 94.3544 17.4267 108.162 28.5795C120.912 38.9082 132.231 50.5555 141.871 63.1916C151.449 75.7729 159.472 89.5078 172.098 99.7266C184.723 110 203.631 116.099 219.179 109.726C228.446 105.935 235.101 98.2982 238.771 89.8924C242.44 81.4866 243.373 72.3666 243.622 63.3564C243.871 53.0278 243.373 42.2046 248.908 33.1395C254.692 23.7448 267.007 17.8663 279.011 18.6904C296.114 19.8441 308.74 32.5901 321.241 43.0287C337.101 56.2692 356.381 67.3671 378.087 69.7295C399.731 72.0919 423.8 64.0157 434 46.9844" stroke="white" stroke-opacity="0.04" stroke-miterlimit="10"/>
<path d="M2.43066 53.6871C14.1233 43.743 26.5622 34.5131 39.6231 25.9975C45.4073 22.2066 51.5023 18.4707 58.406 16.7676C72.3376 13.3064 86.518 18.5256 98.646 26.1073C101.942 28.1951 105.114 30.3927 108.037 32.7001C120.725 42.5344 132.045 53.7421 141.685 65.9387C151.263 78.0255 159.348 91.3759 171.849 101.32C178.877 106.869 187.647 111.319 196.727 113.352C204.688 115.11 212.96 115 220.423 112.033C221.792 111.484 223.036 110.88 224.279 110.22C231.929 106.045 237.465 99.1224 240.761 91.7055C241.818 89.2882 242.689 86.8708 243.435 84.3985C245.301 77.9156 246.11 71.213 246.607 64.5652C247.416 54.0717 247.789 43.2486 253.822 34.2934C259.793 25.3931 271.61 19.6244 283.364 20.3936C300.095 21.4375 312.534 33.5242 324.848 43.3585C325.844 44.1276 326.776 44.8968 327.772 45.6659C342.761 57.0934 360.548 66.2134 380.202 67.9166C401.099 69.7845 424.173 61.5985 433.814 44.8968" stroke="white" stroke-opacity="0.04" stroke-miterlimit="10"/>
<path d="M3.86133 57.9176C15.3674 48.1383 27.6197 39.0733 40.494 30.7774C46.216 27.0964 52.1867 23.4704 59.0281 21.8222C72.7109 18.4159 86.6426 23.3055 98.6462 30.5027C101.88 32.4805 105.052 34.5682 107.975 36.7658C120.539 46.1605 131.858 56.8738 141.623 68.6309C151.263 80.2781 159.41 93.189 171.787 102.803C179.064 108.462 188.082 113.077 197.411 115.275C205.559 117.198 214.08 117.198 221.854 114.231C223.222 113.682 224.591 113.077 225.834 112.418C233.733 108.188 239.455 101.045 242.938 93.4088C244.058 90.9365 244.99 88.4642 245.799 85.882C247.851 79.2343 248.909 72.3668 249.717 65.6641C251.086 54.9509 252.392 44.2376 258.86 35.3374C265.017 26.9316 276.399 21.3277 287.843 21.987C304.2 22.9759 316.452 34.4034 328.58 43.5783C329.513 44.2925 330.508 45.0068 331.503 45.721C346.244 56.3793 363.534 64.7302 382.503 65.9938C402.654 67.3673 424.733 59.0714 433.814 42.6993" stroke="white" stroke-opacity="0.04" stroke-miterlimit="10"/>
<path d="M5.29102 62.148C16.5483 52.5335 28.6762 43.6882 41.364 35.612C47.0237 32.0409 52.9322 28.5248 59.5871 26.8766C73.0211 23.5252 86.7662 28.0853 98.5832 34.8978C101.817 36.7658 104.927 38.7436 107.788 40.8313C120.289 49.7315 131.609 60.0053 141.373 71.268C151.076 82.4757 159.223 94.947 171.538 104.287C179.125 110.055 188.33 114.835 197.97 117.198C206.305 119.23 215.136 119.395 223.159 116.483C224.59 115.934 225.958 115.33 227.326 114.67C235.536 110.385 241.382 103.023 245.052 95.1668C246.234 92.6396 247.229 90.0574 248.037 87.4752C250.214 80.6627 251.582 73.6304 252.764 66.8178C254.63 55.9398 256.869 45.2265 263.835 36.4361C270.116 28.4698 281.063 23.0308 292.258 23.6351C308.242 24.5142 320.308 35.2824 332.187 43.853C333.12 44.5123 334.053 45.1715 335.048 45.8308C349.539 55.7749 366.394 63.3017 384.617 64.0708C404.022 64.8949 425.106 56.5441 433.626 40.5017" stroke="white" stroke-opacity="0.04" stroke-miterlimit="10"/>
<path d="M6.66016 66.4333C17.7308 56.9837 29.61 48.3032 42.1734 40.5017C47.7087 37.0405 53.555 33.6343 60.1477 32.041C73.3329 28.7446 86.8292 32.975 98.5218 39.4029C101.694 41.161 104.804 43.029 107.664 45.0068C120.103 53.4675 131.361 63.2468 141.187 74.07C150.89 84.7832 159.162 96.87 171.352 105.88C179.251 111.704 188.642 116.703 198.531 119.231C207.052 121.428 216.194 121.703 224.466 118.791C225.959 118.297 227.389 117.637 228.758 116.923C237.278 112.583 243.249 105.001 247.105 96.925C248.349 94.3428 249.406 91.7057 250.277 89.0136C252.64 82.0363 254.258 74.8941 255.75 67.9167C258.176 56.8189 261.223 46.2155 268.687 37.48C275.093 29.9533 285.666 24.6791 296.612 25.2285C312.161 25.9976 324.102 36.1615 335.795 44.0728C336.728 44.6772 337.661 45.3364 338.594 45.9408C352.836 55.1157 369.193 61.8733 386.732 62.148C405.391 62.4777 425.48 53.962 433.503 38.3041" stroke="white" stroke-opacity="0.04" stroke-miterlimit="10"/>
<path d="M8.08984 70.6635C18.9739 61.3787 30.6665 52.918 43.0433 45.3363C48.5164 41.9849 54.3006 38.6885 60.7066 37.0953C73.6431 33.8538 86.8906 37.7546 98.4589 43.7979C101.631 45.4461 104.678 47.2591 107.539 49.0722C119.854 57.0384 131.111 66.3782 141 76.7618C150.765 87.0356 159.099 98.6828 171.165 107.418C179.374 113.352 188.952 118.461 199.09 121.208C207.859 123.571 217.189 123.955 225.709 121.043C227.264 120.549 228.695 119.89 230.125 119.175C238.957 114.78 245.052 106.979 249.095 98.6828C250.401 96.0457 251.52 93.2987 252.453 90.6067C255.003 83.5194 256.869 76.1575 258.673 69.1252C261.658 57.8625 265.576 47.3141 273.537 38.6336C280.068 31.6013 290.205 26.437 300.903 26.9314C316.078 27.5907 327.833 37.0953 339.339 44.4023C340.272 45.0066 341.143 45.556 342.076 46.1054C356.07 54.5112 371.929 60.4996 388.784 60.3348C406.696 60.1151 425.79 51.5445 433.253 36.1613" stroke="white" stroke-opacity="0.04" stroke-miterlimit="10"/>
<path d="M9.52148 74.894C20.1568 65.7739 31.725 57.478 43.9152 50.1161C49.3261 46.8197 54.9859 43.6881 61.3297 42.0949C74.0175 38.9084 87.0162 42.4795 98.46 48.1383C101.57 49.6766 104.617 51.3797 107.478 53.0828C119.731 60.6096 130.988 69.4549 140.877 79.3441C150.704 89.1783 159.1 100.331 171.041 108.792C179.562 114.835 189.389 120.109 199.713 123.021C208.669 125.494 218.309 126.043 227.079 123.131C228.634 122.637 230.189 121.977 231.681 121.263C240.762 116.813 247.043 108.792 251.273 100.276C252.641 97.5292 253.823 94.7822 254.818 91.9802C257.554 84.7282 259.669 77.2014 261.846 70.0593C265.329 58.5768 270.055 48.1383 278.638 39.5676C285.231 32.9199 295.058 27.9753 305.444 28.4149C320.247 28.9643 331.815 37.8096 343.134 44.5122C344.005 45.0616 344.938 45.5561 345.809 46.0505C359.554 53.7421 374.978 58.9065 391.086 58.2472C408.252 57.533 426.351 48.8525 433.254 33.799" stroke="white" stroke-opacity="0.04" stroke-miterlimit="10"/>
<path d="M10.9512 79.1247C21.3999 70.1695 32.7193 62.0933 44.7851 54.9511C50.1339 51.7646 55.6692 48.7429 61.8887 47.2046C74.3898 44.073 87.0776 47.3694 98.397 52.5887C101.507 54.0172 104.492 55.6104 107.353 57.2037C119.543 64.236 130.738 72.6418 140.689 82.0914C150.516 91.4312 159.037 102.199 170.854 110.385C179.686 116.484 189.699 121.978 200.334 125.054C209.477 127.691 219.428 128.351 228.446 125.494C230.063 124.999 231.68 124.34 233.173 123.626C242.565 119.121 248.971 110.935 253.449 102.144C254.879 99.3425 256.061 96.4857 257.18 93.6837C260.103 86.2668 262.467 78.6302 264.955 71.3232C268.997 59.621 274.533 49.2923 283.675 40.7767C290.268 34.5685 299.784 29.8436 309.921 30.1183C324.288 30.5578 335.732 38.7988 346.865 44.8422C347.736 45.3367 348.607 45.7762 349.54 46.2706C363.036 53.1931 377.963 57.6432 393.387 56.4345C409.806 55.1709 426.91 46.4355 433.254 31.7116" stroke="white" stroke-opacity="0.04" stroke-miterlimit="10"/>
<path d="M12.3193 83.4096C22.5815 74.6193 33.7143 66.7079 45.5935 59.7855C50.8801 56.7089 56.3532 53.7971 62.4483 52.2588C74.7007 49.1821 87.1396 52.1489 98.3347 56.9836C101.382 58.3021 104.368 59.7855 107.166 61.3238C119.294 67.9166 130.489 75.828 140.441 84.7831C150.33 93.6834 158.912 103.957 170.605 111.868C179.748 118.077 189.948 123.681 200.832 126.977C210.223 129.779 220.423 130.548 229.69 127.691C231.369 127.197 232.986 126.537 234.541 125.823C244.244 121.263 250.774 112.857 255.439 103.847C256.931 100.99 258.175 98.0786 259.357 95.1668C262.404 87.5851 265.079 79.7836 267.94 72.4217C272.542 60.5547 278.824 50.2809 288.526 41.8202C295.181 36.0515 304.386 31.4915 314.213 31.7113C328.207 32.0409 339.464 39.6226 350.348 45.1166C351.219 45.5561 352.089 45.9407 352.96 46.3802C366.208 52.5884 380.637 56.2144 395.377 54.5662C411.05 52.8082 427.096 43.9079 432.943 29.5686" stroke="white" stroke-opacity="0.04" stroke-miterlimit="10"/>
<path d="M13.75 87.6401C23.7634 79.0145 34.7718 71.323 46.4645 64.6203C51.6266 61.6536 57.0376 58.8516 63.0083 57.3133C75.0118 54.2916 87.202 56.9287 98.2727 61.3789C101.32 62.5875 104.243 63.961 107.042 65.3895C119.046 71.4878 130.241 78.9596 140.316 87.4753C150.268 95.936 158.975 105.77 170.481 113.407C179.934 119.67 190.321 125.494 201.454 128.955C211.032 131.867 221.481 132.801 231.059 129.944C232.8 129.449 234.479 128.79 236.096 128.021C246.047 123.406 252.765 114.78 257.616 105.55C259.171 102.639 260.477 99.617 261.721 96.7052C264.955 88.9587 267.878 80.9924 271.05 73.5206C276.212 61.4338 283.24 51.215 293.564 42.8641C300.157 37.48 309.113 33.1398 318.691 33.3046C332.312 33.5793 343.382 40.5017 354.08 45.3364C354.951 45.721 355.759 46.1056 356.63 46.4352C369.628 51.8743 383.622 54.7311 397.616 52.5885C412.543 50.281 427.594 41.3258 432.943 27.3162" stroke="white" stroke-opacity="0.04" stroke-miterlimit="10"/>
<path d="M15.1797 91.8703C25.0065 83.4096 35.8284 75.9378 47.3344 69.4549C52.4344 66.598 57.7831 63.9059 63.6294 62.4226C75.3842 59.4558 87.3878 61.7633 98.2719 65.8288C101.257 66.9276 104.18 68.1912 106.979 69.5098C118.921 75.1686 130.053 82.1459 140.191 90.2221C150.142 98.1884 158.974 107.583 170.356 114.945C180.12 121.263 190.693 127.306 202.137 130.933C211.902 134.009 222.661 135.053 232.426 132.196C234.167 131.702 235.909 131.042 237.588 130.273C247.85 125.603 254.692 116.758 259.73 107.308C261.284 104.342 262.715 101.265 264.021 98.2433C267.442 90.332 270.614 82.2558 274.159 74.6192C279.881 62.3676 287.655 52.2037 298.601 43.9078C305.194 38.9083 313.901 34.7878 323.168 34.8977C336.416 35.0625 347.3 41.3257 357.811 45.556C358.619 45.8857 359.49 46.2153 360.299 46.5449C373.048 51.2148 386.545 53.3025 399.854 50.6654C414.097 47.8635 428.091 38.7984 432.88 25.1184" stroke="white" stroke-opacity="0.04" stroke-miterlimit="10"/>
<path d="M16.5488 96.1008C26.1268 87.8048 36.7621 80.4978 48.1438 74.2896C53.1816 71.5426 58.4059 68.9605 64.1278 67.4771C75.6339 64.5653 87.3887 66.5431 98.1484 70.2241C101.134 71.213 103.995 72.3667 106.793 73.5754C118.673 78.7398 129.806 85.2776 139.943 92.8593C149.957 100.386 158.85 109.286 170.108 116.428C180.183 122.856 191.005 129.065 202.636 132.855C212.587 136.097 223.657 137.251 233.671 134.449C235.474 133.954 237.278 133.295 238.957 132.526C249.53 127.801 256.496 118.736 261.721 109.067C263.338 105.99 264.83 102.913 266.199 99.8367C269.806 91.7605 273.227 83.5195 277.083 75.773C283.302 63.3017 291.823 53.1378 303.453 45.0067C310.046 40.3918 318.442 36.546 327.461 36.546C340.273 36.6009 351.032 42.2597 361.357 45.8308C362.165 46.1055 362.974 46.3802 363.844 46.6549C376.283 50.6106 389.344 51.8742 401.97 48.7426C415.466 45.4462 428.465 36.2713 432.694 22.9209" stroke="white" stroke-opacity="0.04" stroke-miterlimit="10"/>
<path d="M17.9795 100.386C27.3709 92.255 37.8196 85.1678 49.0147 79.1794C53.9903 76.5422 59.1524 74.0699 64.75 72.6415C76.0072 69.7846 87.5132 71.4878 98.1485 74.7292C101.072 75.6632 103.933 76.6521 106.731 77.7509C118.486 82.4208 129.619 88.5191 139.819 95.6613C149.895 102.749 158.913 111.154 169.921 118.077C180.308 124.56 191.316 130.933 203.196 134.943C213.395 138.295 224.715 139.613 234.977 136.811C236.843 136.317 238.647 135.658 240.45 134.888C251.334 130.109 258.424 120.824 263.835 110.935C265.515 107.803 267.07 104.616 268.5 101.485C272.232 93.2439 275.963 84.8931 280.193 77.0367C287.034 64.4005 296.177 54.2367 308.429 46.2154C314.96 41.9851 323.169 38.3591 331.876 38.3041C344.315 38.2492 354.826 43.2487 365.026 46.2154C365.835 46.4352 366.643 46.655 367.452 46.8747C379.642 50.0612 392.268 50.6106 404.209 46.9846C416.959 43.1388 428.963 33.854 432.632 20.8882" stroke="white" stroke-opacity="0.04" stroke-miterlimit="10"/>
<path d="M19.4102 104.616C28.5528 96.6501 38.8771 89.7277 49.8856 83.959C54.7368 81.3768 59.8368 79.0144 65.3099 77.6409C76.3184 74.839 87.5756 76.2125 98.0865 79.1243C101.01 79.9484 103.808 80.8274 106.545 81.8163C118.238 86.0467 129.371 91.6506 139.57 98.2983C149.708 104.891 158.789 112.857 169.673 119.505C180.37 126.043 191.565 132.636 203.693 136.811C214.08 140.327 225.648 141.756 236.221 138.954C238.149 138.459 240.015 137.8 241.819 137.031C252.952 132.141 260.228 122.692 265.826 112.583C267.567 109.396 269.184 106.155 270.677 102.913C274.595 94.5624 278.576 85.9918 283.116 78.0255C290.517 65.1696 300.344 55.0057 313.28 47.1493C319.749 43.2486 327.772 39.8972 336.168 39.7874C348.234 39.6225 358.558 43.9628 368.509 46.3252C369.318 46.49 370.064 46.7098 370.873 46.8197C382.814 49.292 394.942 49.0173 406.199 44.8968C418.203 40.5565 429.212 31.1618 432.321 18.4707" stroke="white" stroke-opacity="0.04" stroke-miterlimit="10"/>
<path d="M20.8398 108.847C29.7959 101.045 39.8714 94.3427 50.7555 88.7938C55.5445 86.3215 60.5823 84.069 65.9311 82.6955C76.6908 79.9485 87.6992 80.9923 98.0236 83.5196C100.885 84.2338 103.683 85.0029 106.42 85.882C118.05 89.6179 129.121 94.7822 139.383 100.99C149.521 107.144 158.788 114.615 169.485 121.043C180.556 127.636 191.875 134.449 204.314 138.734C214.888 142.415 226.767 143.953 237.589 141.206C239.579 140.712 241.445 140.053 243.311 139.229C254.754 134.284 262.156 124.615 267.94 114.286C269.743 111.044 271.423 107.693 272.977 104.452C277.082 95.936 281.312 87.2005 286.225 79.1244C294.124 66.1036 304.635 55.8299 318.317 48.1932C324.724 44.6222 332.498 41.5455 340.708 41.3807C352.338 41.106 362.538 44.8419 372.303 46.545C373.049 46.6549 373.857 46.8197 374.604 46.9296C386.296 48.6328 397.927 47.5889 408.5 42.974C419.757 38.0843 429.771 28.6347 432.383 16.2732" stroke="white" stroke-opacity="0.04" stroke-miterlimit="10"/>
<path d="M22.209 113.077C30.9163 105.386 40.8674 98.9028 51.5027 93.6285C56.2295 91.2661 61.1429 89.1235 66.3673 87.8049C76.8782 85.1129 87.7001 85.8271 97.8378 87.9697C100.637 88.5741 103.435 89.2334 106.172 90.0025C117.74 93.2989 128.811 97.9688 139.073 103.737C149.273 109.451 158.664 116.429 169.175 122.582C180.557 129.23 192.063 136.262 204.751 140.712C215.51 144.503 227.701 146.206 238.709 143.459C240.699 142.965 242.689 142.305 244.617 141.481C256.372 136.482 263.898 126.592 269.869 116.044C271.734 112.748 273.414 109.341 275.093 105.99C279.384 97.3095 283.925 88.4642 289.087 80.2782C297.545 67.0377 308.678 56.709 323.107 49.347C329.451 46.1056 337.039 43.3037 344.938 43.0839C356.195 42.6993 366.208 45.7759 375.786 46.8747C376.533 46.9846 377.279 47.0396 378.025 47.0945C389.469 48.0285 400.602 46.2155 410.491 41.161C421.002 35.7769 430.02 26.2174 432.073 14.1855" stroke="white" stroke-opacity="0.04" stroke-miterlimit="10"/>
<path d="M23.6387 117.362C32.1594 109.836 41.9239 103.572 52.3727 98.4631C57.0373 96.2106 61.8885 94.1778 66.9884 92.8592C77.2506 90.2221 87.8237 90.6067 97.837 92.3648C100.636 92.8592 103.372 93.4086 106.109 94.0679C117.553 96.8698 128.623 101.1 139.01 106.374C149.272 111.594 158.726 118.132 169.112 124.065C180.867 130.768 192.56 137.965 205.434 142.635C216.442 146.59 228.881 148.458 240.139 145.656C242.191 145.162 244.181 144.503 246.172 143.679C258.237 138.624 265.95 128.515 272.045 117.747C273.973 114.341 275.714 110.879 277.456 107.528C281.934 98.6829 286.723 89.6727 292.258 81.3768C301.276 67.9166 312.969 57.478 328.144 50.3907C334.426 47.4789 341.765 45.0066 349.415 44.677C360.299 44.2375 370.126 46.6548 379.517 47.0944C380.264 47.1493 381.01 47.1493 381.756 47.1493C392.951 47.3691 403.649 44.7319 412.791 39.183C422.556 33.2495 430.579 23.5801 432.072 11.9329" stroke="white" stroke-opacity="0.04" stroke-miterlimit="10"/>
<path d="M25.0693 121.593C33.4034 114.231 42.9192 108.133 53.2436 103.298C57.846 101.155 62.5728 99.2323 67.5484 97.9687C77.5617 95.3865 87.8861 95.4415 97.775 96.815C100.512 97.1996 103.248 97.694 105.985 98.2434C117.366 100.606 128.375 104.342 138.824 109.176C149.086 113.956 158.726 119.945 168.926 125.658C180.992 132.416 192.871 139.833 206.056 144.668C217.251 148.788 229.939 150.766 241.507 147.964C243.622 147.47 245.674 146.81 247.664 145.986C259.979 140.877 267.878 130.548 274.159 119.56C276.15 116.099 277.953 112.583 279.757 109.122C284.359 100.111 289.459 90.9364 295.306 82.5306C304.884 68.9055 317.198 58.2472 333.12 51.4896C339.34 48.8525 346.492 46.7099 353.831 46.3253C364.342 45.7759 373.982 47.534 383.125 47.3691C383.871 47.3691 384.555 47.3142 385.302 47.3142C396.248 46.7648 406.448 43.3585 414.906 37.3151C423.924 30.8872 430.952 21.1079 431.885 9.79028" stroke="white" stroke-opacity="0.04" stroke-miterlimit="10"/>
<path d="M26.4375 125.823C34.5228 118.626 43.9142 112.748 54.052 108.133C58.53 106.1 63.1946 104.287 68.108 103.023C77.8726 100.496 87.9481 100.221 97.7127 101.21C100.449 101.485 103.124 101.87 105.798 102.309C117.117 104.177 128.126 107.473 138.575 111.814C148.961 116.154 158.726 121.648 168.739 127.142C181.178 133.899 193.182 141.591 206.616 146.591C217.997 150.876 230.996 152.964 242.813 150.217C244.99 149.722 247.042 149.063 249.095 148.239C261.72 143.074 269.743 132.526 276.212 121.318C278.264 117.802 280.13 114.231 281.996 110.715C286.785 101.54 292.134 92.255 298.353 83.7394C308.491 69.8945 321.365 59.0164 338.095 52.6434C344.253 50.281 351.156 48.468 358.247 48.0285C368.322 47.3692 377.838 48.468 386.794 47.6988C387.478 47.6439 388.224 47.589 388.909 47.4791C399.606 46.2155 409.308 42.04 417.083 35.5022C425.355 28.5798 431.388 18.6906 431.761 7.70264" stroke="white" stroke-opacity="0.04" stroke-miterlimit="10"/>
<path d="M27.8672 130.054C35.7659 123.021 44.9707 117.308 54.9219 112.967C59.3377 111.045 63.9402 109.341 68.667 108.078C78.1828 105.606 88.0095 105.001 97.6497 105.606C100.324 105.77 102.998 106.045 105.673 106.375C116.868 107.803 127.876 110.605 138.387 114.506C148.774 118.352 158.601 123.406 168.49 128.625C181.239 135.438 193.43 143.294 207.113 148.514C218.681 152.909 231.99 155.161 244.056 152.414C246.233 151.92 248.41 151.261 250.524 150.381C263.461 145.162 271.608 134.394 278.263 122.967C280.378 119.395 282.306 115.714 284.172 112.143C289.147 102.804 294.745 93.3539 301.275 84.7284C311.911 70.7187 325.469 59.511 342.946 53.5775C349.041 51.4898 355.758 50.0064 362.537 49.512C372.24 48.7428 381.569 49.2373 390.338 47.8638C391.022 47.7539 391.707 47.644 392.391 47.4792C402.839 45.4464 412.106 40.5018 419.134 33.4695C426.66 25.9977 431.698 16.0536 431.511 5.39526" stroke="white" stroke-opacity="0.04" stroke-miterlimit="10"/>
<path d="M29.2988 134.339C36.9488 127.471 46.0292 121.977 55.7938 117.802C60.1474 115.989 64.6255 114.396 69.2901 113.187C78.5571 110.77 88.1973 109.836 97.6509 110.055C100.325 110.11 102.937 110.275 105.612 110.495C116.745 111.429 127.753 113.791 138.264 117.253C148.651 120.659 158.664 125.164 168.366 130.218C181.489 137.031 193.804 145.162 207.736 150.546C219.553 155.106 233.111 157.469 245.363 154.722C247.602 154.227 249.841 153.568 251.956 152.689C265.141 147.415 273.475 136.427 280.317 124.834C282.494 121.153 284.484 117.472 286.412 113.846C291.574 104.342 297.42 94.7273 304.262 85.9918C315.457 71.7624 329.575 60.225 347.798 54.786C353.831 52.973 360.299 51.8742 366.83 51.2698C376.159 50.3908 385.302 50.226 393.885 48.2481C394.569 48.0833 395.253 47.9185 395.937 47.7537C406.137 45.0067 414.906 39.238 421.25 31.7113C428.029 23.745 432.072 13.6361 431.388 3.3623" stroke="white" stroke-opacity="0.04" stroke-miterlimit="10"/>
<path d="M30.7295 138.569C48.0818 123.021 72.9597 114.89 97.6511 114.451C122.342 114.011 146.785 120.824 168.242 131.647C181.738 138.459 194.24 146.865 208.42 152.414C222.6 157.963 239.393 160.435 253.573 154.832C271.299 147.854 280.317 130.713 288.838 115.275C302.832 89.8927 322.299 63.6864 352.961 55.775C368.261 51.8194 384.929 52.9182 399.731 47.6989C420.193 40.4468 433.814 20.3938 431.45 1" stroke="white" stroke-opacity="0.04" stroke-miterlimit="10"/>
</svg>
